<svg xmlns="http://www.w3.org/2000/svg"  shape-rendering="crispEdges" xmlns:xlink="http://www.w3.org/1999/xlink" width="5.023in" height="1.777in" viewBox="4013 3009.9 502.3 177.7">      <style type="text/css">
      path, polyline, polygon { stroke-linejoin: round;}
      path, polyline, polygon, line { stroke-linecap: round;}
      rect, circle, ellipse, polyline, polygon, line, path { shape-rendering: crispEdges;}
      *[layerid="0"] { stroke: #FFFFFF; FILL: #FFFFFF;}
        *[layerid="1"] { stroke: #FF0000; fill: #FF0000;}        *[layerid="2"] { stroke: #0000FF; fill: #0000FF;}        *[layerid="3"] { stroke: #FFFF00; fill: #FFFF00;}        *[layerid="4"] { stroke: #808000; fill: #808000;}        *[layerid="5"] { stroke: #808080; fill: #808080;}        *[layerid="6"] { stroke: #800000; fill: #800000;}        *[layerid="7"] { stroke: #800080; fill: #800080;}        *[layerid="8"] { stroke: #AA00FF; fill: #AA00FF;}        *[layerid="9"] { stroke: #6464FF; fill: #6464FF;}        *[layerid="10"] { stroke: #FF00FF; fill: #FF00FF;}        *[layerid="11"] { stroke: #C0C0C0; fill: #C0C0C0;}        *[layerid="12"] { stroke: #FFFFFF; fill: #FFFFFF;}        *[layerid="13"] { stroke: #33CC99; fill: #33CC99;}        *[layerid="14"] { stroke: #5555FF; fill: #5555FF;}        *[layerid="15"] { stroke: #F022F0; fill: #F022F0;}        *[layerid="21"] { stroke: #800000; fill: #800000;}        *[layerid="22"] { stroke: #008000; fill: #008000;}        *[layerid="23"] { stroke: #00FF00; fill: #00FF00;}        *[layerid="24"] { stroke: #000080; fill: #000080;}          *[fill="none"] { fill: none; }
      *[stroke="none"] { stroke: none;}
      g[c_partid="part_pad"] > * + circle { fill: #222222;}
      g[c_partid="part_via"] > * + circle { fill: #222222;}
	g[c_partid="part_pad"] > polyline:nth-child(2) {stroke: #222222;}
	  </style><g >   <rect x="4013" y="3009.9" width="502.3" height="177.7" fill="#000000" stroke="none"/><path d="M 4195.1568 3124.8078 L 4194.0968 3127.9478 L 4194.6468 3128.4978 L 4197.7968 3127.4378 L 4197.2968 3126.9478 L 4194.8168 3127.7778 L 4195.6468 3125.2878 Z  M 4198.1568 3128.3478 L 4198.7968 3128.9878 L 4196.9668 3130.8178 L 4197.4468 3131.2978 L 4199.5468 3129.1978 L 4198.4268 3128.0778 Z " stroke="none" layerid="3"/> <polyline points="4215.905 3127.226 4210.905 3127.226" stroke-width="1"   stroke-linecap="round" fill="none" layerid="3"/> <polyline points="4210.905 3127.226 4208.405 3124.726" stroke-width="1"   stroke-linecap="round" fill="none" layerid="3"/> <polyline points="4208.405 3119.726 4210.905 3117.226" stroke-width="1"   stroke-linecap="round" fill="none" layerid="3"/> <polyline points="4208.405 3124.726 4205.905 3127.226" stroke-width="1"   stroke-linecap="round" fill="none" layerid="3"/> <polyline points="4205.905 3127.226 4200.905 3127.226" stroke-width="1"   stroke-linecap="round" fill="none" layerid="3"/> <polyline points="4200.905 3127.226 4198.405 3124.726" stroke-width="1"   stroke-linecap="round" fill="none" layerid="3"/> <polyline points="4198.405 3119.726 4200.905 3117.226" stroke-width="1"   stroke-linecap="round" fill="none" layerid="3"/> <polyline points="4200.905 3117.226 4205.905 3117.226" stroke-width="1"   stroke-linecap="round" fill="none" layerid="3"/> <polyline points="4205.905 3117.226 4208.405 3119.726" stroke-width="1"   stroke-linecap="round" fill="none" layerid="3"/> <polyline points="4218.405 3124.726 4218.405 3119.726" stroke-width="1"   stroke-linecap="round" fill="none" layerid="3"/> <polyline points="4215.905 3127.226 4218.405 3124.726" stroke-width="1"   stroke-linecap="round" fill="none" layerid="3"/> <polyline points="4218.405 3119.726 4215.905 3117.226" stroke-width="1"   stroke-linecap="round" fill="none" layerid="3"/> <polyline points="4210.905 3117.226 4215.905 3117.226" stroke-width="1"   stroke-linecap="round" fill="none" layerid="3"/> <polyline points="4198.405 3124.726 4198.405 3119.726" stroke-width="1"   stroke-linecap="round" fill="none" layerid="3"/>      <g c_partid="part_pad" c_type="pinpart" layerid="11" c_etype="pinpart">  <ellipse  xmlns="http://www.w3.org/2000/svg" cx="4213.51" cy="3122.34" rx="3.7" ry="3.7" stroke-width="0"  />  <circle cx="4213.51" cy="3122.34" r="2" stroke-width="0" /></g>      <g c_partid="part_pad" c_type="pinpart" layerid="11" c_etype="pinpart">  <ellipse  xmlns="http://www.w3.org/2000/svg" cx="4203.51" cy="3122.34" rx="3.7" ry="3.7" stroke-width="0"  />  <circle cx="4203.51" cy="3122.34" r="2" stroke-width="0" /></g><path d="M 4263.746 3111.2839 L 4260.846 3114.1839 M 4260.846 3111.2839 L 4263.746 3114.1739" fill="none" layerid="12"  stroke-linecap="round" stroke-width="0.6" />      <circle cx="4253.41" cy="3095.53" r="5" layerid="12" stroke-width="1" fill="none" /><path d="M 4245.4879 3079.5389 L 4247.2379 3081.2889 C 4247.5579 3081.6089 4247.8779 3081.6689 4248.1379 3081.4189 L 4248.6679 3080.8789 C 4248.9279 3080.6289 4248.8579 3080.3089 4248.5479 3079.9889 L 4247.3979 3078.8389 C 4247.3179 3078.7589 4247.3079 3078.6789 4247.3679 3078.6189 L 4247.6979 3078.2889 C 4247.7679 3078.2189 4247.8479 3078.2289 4247.9279 3078.3089 L 4249.4179 3079.8089 L 4249.6879 3079.5389 L 4248.0979 3077.9489 C 4247.7779 3077.6289 4247.4579 3077.5589 4247.2079 3077.8189 L 4246.9079 3078.1189 C 4246.6479 3078.3789 4246.7079 3078.6989 4247.0279 3079.0089 L 4248.1779 3080.1589 C 4248.2579 3080.2389 4248.2779 3080.3089 4248.2079 3080.3789 L 4247.6379 3080.9489 C 4247.5779 3081.0089 4247.4879 3080.9989 4247.4079 3080.9189 L 4245.7579 3079.2689 Z  M 4248.5779 3081.8589 C 4248.3279 3082.1189 4248.3879 3082.4389 4248.7079 3082.7489 L 4250.4579 3084.4989 L 4251.7579 3083.1989 L 4250.6679 3082.1189 L 4250.4079 3082.3889 L 4251.0079 3082.9889 L 4250.2479 3083.7589 L 4249.0679 3082.5789 C 4248.9879 3082.4989 4248.9779 3082.4089 4249.0379 3082.3489 L 4250.4079 3080.9889 C 4250.4679 3080.9189 4250.5479 3080.9389 4250.6279 3081.0089 L 4252.1579 3082.5389 L 4252.4279 3082.2689 L 4250.8079 3080.6489 C 4250.4879 3080.3389 4250.1679 3080.2689 4249.9179 3080.5289 Z  M 4253.1279 3083.5089 L 4253.7579 3084.1489 L 4251.9279 3085.9789 L 4252.4079 3086.4589 L 4254.5079 3084.3589 L 4253.3979 3083.2389 Z " stroke="none" layerid="3"/>      <circle cx="4253.41" cy="3095.53" r="23.2" layerid="3" stroke-width="1" fill="none" />      <g c_partid="part_pad" c_type="pinpart" layerid="11" c_etype="pinpart">  <ellipse  xmlns="http://www.w3.org/2000/svg" cx="4244.23" cy="3086.65" rx="3.7" ry="3.7" stroke-width="0"  />  <circle cx="4244.23" cy="3086.65" r="1.77" stroke-width="0" /></g>      <g c_partid="part_pad" c_type="pinpart" layerid="11" c_etype="pinpart">  <ellipse  xmlns="http://www.w3.org/2000/svg" cx="4262.33" cy="3104.77" rx="3.7" ry="3.7" stroke-width="0"  />  <circle cx="4262.33" cy="3104.77" r="1.77" stroke-width="0" /></g>  <path d="M 4102.778 3106.056 A 9 9 -45 1 0 4095.728 3098.996" layerid="3" fill="none"  stroke-linecap="round" stroke-width="1"/> <polyline points="4095.724 3098.997 4102.802 3106.105" stroke-width="1"   stroke-linecap="round" fill="none" layerid="3"/>      <g c_partid="part_pad" c_type="pinpart" layerid="11" c_etype="pinpart">  <ellipse  xmlns="http://www.w3.org/2000/svg" cx="4108.09" cy="3093.73" rx="3.25" ry="3.25" stroke-width="0"  />  <circle cx="4108.09" cy="3093.73" r="1.9" stroke-width="0" /></g>      <g c_partid="part_pad" c_type="pinpart" layerid="11" c_etype="pinpart">  <ellipse  xmlns="http://www.w3.org/2000/svg" cx="4101.01" cy="3100.81" rx="3.25" ry="3.25" stroke-width="0"  />  <circle cx="4101.01" cy="3100.81" r="1.9" stroke-width="0" /></g><path d="M 4129.918 3110.676 L 4130.388 3111.146 L 4131.308 3110.226 L 4131.978 3110.896 L 4131.748 3112.506 L 4132.268 3113.026 L 4132.498 3111.426 L 4132.578 3111.496 C 4132.898 3111.816 4133.218 3111.886 4133.468 3111.626 L 4133.888 3111.206 C 4134.148 3110.956 4134.078 3110.636 4133.758 3110.316 L 4132.018 3108.576 Z  M 4131.588 3109.956 L 4132.218 3109.316 L 4133.398 3110.496 C 4133.478 3110.576 4133.498 3110.656 4133.428 3110.726 L 4132.988 3111.166 C 4132.918 3111.236 4132.838 3111.206 4132.768 3111.136 Z  M 4132.628 3113.386 L 4134.258 3115.016 C 4134.578 3115.336 4134.898 3115.396 4135.148 3115.146 L 4135.608 3114.686 C 4135.798 3114.486 4135.788 3114.276 4135.698 3114.106 C 4135.878 3114.186 4136.088 3114.196 4136.278 3114.006 L 4136.488 3113.806 C 4136.738 3113.546 4136.678 3113.236 4136.358 3112.916 L 4134.728 3111.286 L 4134.458 3111.556 L 4135.998 3113.086 C 4136.078 3113.166 4136.088 3113.256 4136.028 3113.316 L 4135.688 3113.646 C 4135.628 3113.716 4135.548 3113.696 4135.468 3113.616 L 4134.218 3112.376 L 4133.948 3112.646 L 4135.198 3113.886 C 4135.278 3113.966 4135.298 3114.046 4135.228 3114.106 L 4134.658 3114.686 C 4134.598 3114.746 4134.508 3114.736 4134.438 3114.656 L 4132.898 3113.116 Z " stroke="none" layerid="3"/> <polyline points="4132.896 3098.052 4147.039 3112.195" stroke-width="1"   stroke-linecap="round" fill="none" layerid="3"/> <polyline points="4147.039 3112.195 4144.917 3114.316" stroke-width="1"   stroke-linecap="round" fill="none" layerid="3"/> <polyline points="4144.917 3114.316 4142.796 3116.438" stroke-width="1"   stroke-linecap="round" fill="none" layerid="3"/> <polyline points="4142.796 3116.438 4128.654 3102.295" stroke-width="1"   stroke-linecap="round" fill="none" layerid="3"/> <polyline points="4128.654 3102.295 4130.775 3100.174" stroke-width="1"   stroke-linecap="round" fill="none" layerid="3"/> <polyline points="4130.775 3100.174 4132.896 3098.052" stroke-width="1"   stroke-linecap="round" fill="none" layerid="3"/> <polyline points="4144.917 3114.316 4145.624 3115.023" stroke-width="1"   stroke-linecap="round" fill="none" layerid="3"/> <polyline points="4130.775 3100.174 4130.068 3099.467" stroke-width="1"   stroke-linecap="round" fill="none" layerid="3"/>      <g c_partid="part_pad" c_type="pinpart" layerid="11" c_etype="pinpart">  <ellipse  xmlns="http://www.w3.org/2000/svg" cx="4127.24" cy="3096.67" rx="3.7" ry="3.7" stroke-width="0"  />  <circle cx="4127.24" cy="3096.67" r="1.77" stroke-width="0" /></g>      <g c_partid="part_pad" c_type="pinpart" layerid="11" c_etype="pinpart">  <ellipse  xmlns="http://www.w3.org/2000/svg" cx="4148.45" cy="3117.88" rx="3.7" ry="3.7" stroke-width="0"  />  <circle cx="4148.45" cy="3117.88" r="1.77" stroke-width="0" /></g><path d="M 4304.3299 3083.0049 L 4304.8099 3083.4849 L 4305.7299 3082.5649 L 4306.3999 3083.2349 L 4306.1599 3084.8349 L 4306.6899 3085.3649 L 4306.9199 3083.7549 L 4306.9999 3083.8349 C 4307.3199 3084.1549 4307.6399 3084.2149 4307.8899 3083.9649 L 4308.3099 3083.5449 C 4308.5599 3083.2949 4308.4999 3082.9749 4308.1799 3082.6549 L 4306.4299 3080.9049 Z  M 4305.9999 3082.2849 L 4306.6399 3081.6549 L 4307.8199 3082.8349 C 4307.8999 3082.9049 4307.9099 3082.9949 4307.8499 3083.0549 L 4307.3999 3083.5049 C 4307.3399 3083.5649 4307.2599 3083.5449 4307.1799 3083.4649 Z  M 4306.9799 3085.6649 L 4309.1799 3087.8549 L 4309.4499 3087.5949 L 4307.7299 3085.8749 L 4308.4099 3085.2049 C 4308.4699 3085.1349 4308.5499 3085.1549 4308.6299 3085.2349 L 4309.7099 3086.3149 C 4310.0299 3086.6349 4310.3399 3086.7049 4310.5999 3086.4449 L 4310.8999 3086.1449 C 4311.1599 3085.8849 4311.0899 3085.5649 4310.7699 3085.2549 L 4309.2499 3083.7249 L 4308.9799 3083.9949 L 4310.4099 3085.4249 C 4310.4899 3085.5049 4310.4999 3085.5849 4310.4399 3085.6449 L 4310.0999 3085.9749 C 4310.0399 3086.0449 4309.9599 3086.0349 4309.8799 3085.9549 L 4308.7899 3084.8649 C 4308.4799 3084.5549 4308.1699 3084.4749 4307.8999 3084.7449 Z " stroke="none" layerid="3"/> <polyline points="4278.572 3096.548 4296.957 3078.163" stroke-width="1"   stroke-linecap="round" fill="none" layerid="3"/> <polyline points="4296.957 3078.163 4316.402 3097.608" stroke-width="1"   stroke-linecap="round" fill="none" layerid="3"/> <polyline points="4316.402 3097.608 4298.018 3115.993" stroke-width="1"   stroke-linecap="round" fill="none" layerid="3"/> <polyline points="4298.018 3115.993 4278.572 3096.548" stroke-width="1"   stroke-linecap="round" fill="none" layerid="3"/> <polyline points="4296.533 3094.285 4297.947 3092.871" stroke-width="1"   stroke-linecap="round" fill="none" layerid="3"/> <polyline points="4297.947 3092.871 4299.361 3091.457" stroke-width="1"   stroke-linecap="round" fill="none" layerid="3"/> <polyline points="4298.371 3096.124 4299.785 3094.709" stroke-width="1"   stroke-linecap="round" fill="none" layerid="3"/> <polyline points="4299.785 3094.709 4301.2 3093.295" stroke-width="1"   stroke-linecap="round" fill="none" layerid="3"/> <polyline points="4296.533 3097.962 4297.947 3099.376" stroke-width="1"   stroke-linecap="round" fill="none" layerid="3"/> <polyline points="4297.947 3099.376 4299.361 3100.79" stroke-width="1"   stroke-linecap="round" fill="none" layerid="3"/> <polyline points="4296.533 3097.962 4295.119 3099.376" stroke-width="1"   stroke-linecap="round" fill="none" layerid="3"/> <polyline points="4295.119 3099.376 4293.704 3100.79" stroke-width="1"   stroke-linecap="round" fill="none" layerid="3"/> <polyline points="4294.694 3096.124 4293.28 3097.538" stroke-width="1"   stroke-linecap="round" fill="none" layerid="3"/> <polyline points="4293.28 3097.538 4291.866 3098.952" stroke-width="1"   stroke-linecap="round" fill="none" layerid="3"/> <polyline points="4294.694 3096.124 4293.28 3094.709" stroke-width="1"   stroke-linecap="round" fill="none" layerid="3"/> <polyline points="4293.28 3094.709 4291.866 3093.295" stroke-width="1"   stroke-linecap="round" fill="none" layerid="3"/> <polyline points="4296.533 3094.285 4295.119 3092.871" stroke-width="1"   stroke-linecap="round" fill="none" layerid="3"/> <polyline points="4295.119 3092.871 4293.704 3091.457" stroke-width="1"   stroke-linecap="round" fill="none" layerid="3"/> <polyline points="4298.371 3096.124 4299.785 3097.538" stroke-width="1"   stroke-linecap="round" fill="none" layerid="3"/> <polyline points="4299.785 3097.538 4301.2 3098.952" stroke-width="1"   stroke-linecap="round" fill="none" layerid="3"/> <polyline points="4297.947 3092.871 4299.785 3094.709" stroke-width="1"   stroke-linecap="round" fill="none" layerid="3"/> <polyline points="4293.28 3097.538 4295.119 3099.376" stroke-width="1"   stroke-linecap="round" fill="none" layerid="3"/> <polyline points="4293.28 3094.709 4295.119 3092.871" stroke-width="1"   stroke-linecap="round" fill="none" layerid="3"/> <polyline points="4297.947 3099.376 4299.785 3097.538" stroke-width="1"   stroke-linecap="round" fill="none" layerid="3"/> <polyline points="4302.897 3097.255 4307.422 3097.679" stroke-width="1"   stroke-linecap="round" fill="none" layerid="3"/> <polyline points="4302.967 3096.053 4307.493 3096.477" stroke-width="1"   stroke-linecap="round" fill="none" layerid="3"/> <polyline points="4297.664 3102.487 4298.088 3107.013" stroke-width="1"   stroke-linecap="round" fill="none" layerid="3"/> <polyline points="4296.462 3102.558 4296.957 3107.154" stroke-width="1"   stroke-linecap="round" fill="none" layerid="3"/> <polyline points="4302.614 3094.144 4304.806 3093.224" stroke-width="1"   stroke-linecap="round" fill="none" layerid="3"/> <polyline points="4294.553 3102.205 4293.634 3104.396" stroke-width="1"   stroke-linecap="round" fill="none" layerid="3"/> <polyline points="4300.068 3090.749 4301.553 3088.982" stroke-width="1"   stroke-linecap="round" fill="none" layerid="3"/> <polyline points="4301.553 3088.982 4301.553 3088.982" stroke-width="1"   stroke-linecap="round" fill="none" layerid="3"/> <polyline points="4291.159 3099.659 4289.391 3101.144" stroke-width="1"   stroke-linecap="round" fill="none" layerid="3"/> <polyline points="4289.391 3101.144 4289.391 3101.144" stroke-width="1"   stroke-linecap="round" fill="none" layerid="3"/> <polyline points="4298.3 3089.971 4298.795 3087.638" stroke-width="1"   stroke-linecap="round" fill="none" layerid="3"/> <polyline points="4290.381 3097.891 4288.047 3098.386" stroke-width="1"   stroke-linecap="round" fill="none" layerid="3"/> <polyline points="4297.169 3089.689 4297.593 3087.426" stroke-width="1"   stroke-linecap="round" fill="none" layerid="3"/> <polyline points="4290.098 3096.76 4287.836 3097.184" stroke-width="1"   stroke-linecap="round" fill="none" layerid="3"/> <polyline points="4295.189 3089.83 4294.553 3087.638" stroke-width="1"   stroke-linecap="round" fill="none" layerid="3"/> <polyline points="4290.239 3094.78 4288.047 3094.144" stroke-width="1"   stroke-linecap="round" fill="none" layerid="3"/> <polyline points="4294.128 3090.184 4293.421 3087.921" stroke-width="1"   stroke-linecap="round" fill="none" layerid="3"/> <polyline points="4290.593 3093.719 4288.33 3093.012" stroke-width="1"   stroke-linecap="round" fill="none" layerid="3"/> <polyline points="4309.261 3096.124 4309.968 3096.124" stroke-width="1"   stroke-linecap="round" fill="none" layerid="3"/> <polyline points="4309.968 3096.124 4310.675 3096.831" stroke-width="1"   stroke-linecap="round" fill="none" layerid="3"/> <polyline points="4310.675 3096.831 4310.675 3097.538" stroke-width="1"   stroke-linecap="round" fill="none" layerid="3"/> <polyline points="4309.968 3098.245 4310.675 3097.538" stroke-width="1"   stroke-linecap="round" fill="none" layerid="3"/> <polyline points="4310.675 3097.538 4311.382 3097.538" stroke-width="1"   stroke-linecap="round" fill="none" layerid="3"/> <polyline points="4311.382 3097.538 4312.089 3098.245" stroke-width="1"   stroke-linecap="round" fill="none" layerid="3"/> <polyline points="4309.261 3096.124 4308.2 3097.184" stroke-width="1"   stroke-linecap="round" fill="none" layerid="3"/> <polyline points="4308.2 3097.184 4308.2 3097.891" stroke-width="1"   stroke-linecap="round" fill="none" layerid="3"/> <polyline points="4312.089 3098.245 4312.089 3098.952" stroke-width="1"   stroke-linecap="round" fill="none" layerid="3"/> <polyline points="4312.089 3098.952 4311.028 3100.012" stroke-width="1"   stroke-linecap="round" fill="none" layerid="3"/> <polyline points="4311.028 3100.012 4310.321 3100.012" stroke-width="1"   stroke-linecap="round" fill="none" layerid="3"/> <polyline points="4297.593 3107.791 4300.422 3110.619" stroke-width="1"   stroke-linecap="round" fill="none" layerid="3"/> <polyline points="4300.422 3110.619 4301.129 3109.912" stroke-width="1"   stroke-linecap="round" fill="none" layerid="3"/> <polyline points="4300.422 3110.619 4299.715 3111.326" stroke-width="1"   stroke-linecap="round" fill="none" layerid="3"/> <polyline points="4297.593 3107.791 4297.593 3109.205" stroke-width="1"   stroke-linecap="round" fill="none" layerid="3"/>  <path d="M 4297.674 3102.443 A 6.42166 6.42166 -135 0 0 4302.852 3097.263" layerid="3" fill="none"  stroke-linecap="round" stroke-width="1"/>  <path d="M 4302.963 3096.093 A 6.4302 6.4302 -135 0 0 4302.661 3094.173" layerid="3" fill="none"  stroke-linecap="round" stroke-width="1"/>  <path d="M 4296.505 3102.553 A 6.4302 6.4302 -135 0 1 4294.583 3102.253" layerid="3" fill="none"  stroke-linecap="round" stroke-width="1"/>  <path d="M 4302.212 3093.063 A 6.45205 6.45205 -135 0 0 4301.039 3091.503" layerid="3" fill="none"  stroke-linecap="round" stroke-width="1"/>  <path d="M 4293.47 3101.803 A 6.45202 6.45202 -135 0 1 4291.916 3100.633" layerid="3" fill="none"  stroke-linecap="round" stroke-width="1"/>  <path d="M 4300.096 3090.783 A 6.42405 6.42405 -135 0 0 4298.312 3089.953" layerid="3" fill="none"  stroke-linecap="round" stroke-width="1"/>  <path d="M 4291.188 3099.683 A 6.42405 6.42405 -135 0 1 4290.36 3097.903" layerid="3" fill="none"  stroke-linecap="round" stroke-width="1"/>  <path d="M 4297.201 3089.723 A 6.43815 6.43815 -135 0 0 4295.227 3089.823" layerid="3" fill="none"  stroke-linecap="round" stroke-width="1"/>  <path d="M 4290.13 3096.793 A 6.43815 6.43815 -135 0 1 4290.229 3094.823" layerid="3" fill="none"  stroke-linecap="round" stroke-width="1"/>  <path d="M 4294.083 3090.163 A 6.44168 6.44168 -135 0 0 4292.414 3091.173" layerid="3" fill="none"  stroke-linecap="round" stroke-width="1"/>  <path d="M 4290.575 3093.673 A 6.44168 6.44168 -135 0 1 4291.58 3092.003" layerid="3" fill="none"  stroke-linecap="round" stroke-width="1"/>  <path d="M 4307.448 3097.673 A 11.0238 11.0238 -135 0 0 4307.551 3096.493" layerid="3" fill="none"  stroke-linecap="round" stroke-width="1"/>  <path d="M 4298.08 3107.043 A 11.0238 11.0238 -135 0 1 4296.904 3107.143" layerid="3" fill="none"  stroke-linecap="round" stroke-width="1"/>  <path d="M 4298.774 3087.683 A 8.728 8.728 -135 0 0 4297.615 3087.463" layerid="3" fill="none"  stroke-linecap="round" stroke-width="1"/>  <path d="M 4288.096 3098.363 A 8.728 8.728 -135 0 1 4287.871 3097.203" layerid="3" fill="none"  stroke-linecap="round" stroke-width="1"/>  <path d="M 4294.551 3087.623 A 8.7285 8.7285 -135 0 0 4293.422 3087.963" layerid="3" fill="none"  stroke-linecap="round" stroke-width="1"/>  <path d="M 4288.031 3094.143 A 8.7285 8.7285 -135 0 1 4288.377 3093.013" layerid="3" fill="none"  stroke-linecap="round" stroke-width="1"/>      <circle cx="4296.54" cy="3096.13" r="5.5" layerid="3" stroke-width="1" fill="none" />      <g c_partid="part_pad" c_type="pinpart" layerid="11" c_etype="pinpart">  <ellipse  xmlns="http://www.w3.org/2000/svg" cx="4304.65" cy="3089.94" rx="2.36" ry="2.36" stroke-width="0"  />  <circle cx="4304.65" cy="3089.94" r="1.57" stroke-width="0" /></g>      <g c_partid="part_pad" c_type="pinpart" layerid="11" c_etype="pinpart">  <ellipse  xmlns="http://www.w3.org/2000/svg" cx="4290.5" cy="3104.09" rx="2.36" ry="2.36" stroke-width="0"  />  <circle cx="4290.5" cy="3104.09" r="1.57" stroke-width="0" /></g>      <g c_partid="part_pad" c_type="pinpart" layerid="11" c_etype="pinpart">  <ellipse  xmlns="http://www.w3.org/2000/svg" cx="4289.66" cy="3089.09" rx="2.36" ry="2.36" stroke-width="0"  />  <circle cx="4289.66" cy="3089.09" r="1.57" stroke-width="0" /></g><path d="M 4162.5558 3122.1636 C 4162.3058 3122.4136 4162.3658 3122.7336 4162.6858 3123.0536 L 4164.3058 3124.6836 L 4164.5758 3124.4136 L 4163.0458 3122.8736 C 4162.9758 3122.8036 4162.9558 3122.7236 4163.0158 3122.6636 L 4164.3958 3121.2836 C 4164.4458 3121.2336 4164.5358 3121.2336 4164.6058 3121.3136 L 4166.1358 3122.8536 L 4166.4058 3122.5836 L 4164.7858 3120.9536 C 4164.4658 3120.6336 4164.1458 3120.5736 4163.8858 3120.8236 Z  M 4166.9158 3123.6236 L 4167.5558 3124.2636 L 4165.7258 3126.0936 L 4166.1958 3126.5736 L 4168.2958 3124.4736 L 4167.1858 3123.3636 Z " stroke="none" layerid="3"/> <polyline points="4170.398 3132.875 4156.256 3118.733 4149.185 3125.804 4163.327 3139.946 4170.398 3132.875" stroke-width="0.79"   stroke-linecap="round" fill="none" layerid="3"/>      <g c_partid="part_pad" c_type="pinpart" layerid="11" c_etype="pinpart">  <ellipse  xmlns="http://www.w3.org/2000/svg" cx="4156.28" cy="3125.84" rx="2.35" ry="2.35" stroke-width="0"  />  <circle cx="4156.28" cy="3125.84" r="1.4" stroke-width="0" /></g>      <g c_partid="part_pad" c_type="pinpart" layerid="11" c_etype="pinpart">  <ellipse  xmlns="http://www.w3.org/2000/svg" cx="4163.36" cy="3132.9" rx="2.35" ry="2.35" stroke-width="0"  />  <circle cx="4163.36" cy="3132.9" r="1.4" stroke-width="0" /></g><path d="M 4142.8626 3097.1553 C 4142.6126 3097.3953 4142.6926 3097.7353 4143.0026 3098.0453 L 4144.6126 3099.6653 L 4144.8826 3099.3953 L 4143.3526 3097.8553 C 4143.2726 3097.7853 4143.2726 3097.7053 4143.3326 3097.6553 L 4144.6926 3096.2853 C 4144.7526 3096.2153 4144.8426 3096.2353 4144.9226 3096.3053 L 4146.4426 3097.8353 L 4146.7126 3097.5653 L 4145.0926 3095.9453 C 4144.7926 3095.6353 4144.4626 3095.5753 4144.2126 3095.8253 Z  M 4144.9826 3100.0353 L 4147.1926 3102.2353 L 4147.4426 3101.9753 L 4145.7326 3100.2453 L 4146.4026 3099.5653 C 4146.4626 3099.5153 4146.5426 3099.5353 4146.6326 3099.6153 L 4147.6926 3100.6953 C 4148.0226 3101.0153 4148.3426 3101.0753 4148.5926 3100.8253 L 4148.9026 3100.5253 C 4149.1526 3100.2653 4149.0826 3099.9353 4148.7726 3099.6153 L 4147.2526 3098.0953 L 4146.9826 3098.3653 L 4148.4026 3099.7953 C 4148.4826 3099.8553 4148.5026 3099.9553 4148.4426 3100.0253 L 4148.1026 3100.3453 C 4148.0426 3100.4153 4147.9626 3100.4053 4147.8726 3100.3253 L 4146.7926 3099.2453 C 4146.4826 3098.9253 4146.1726 3098.8553 4145.9226 3099.1053 Z " stroke="none" layerid="3"/> <polyline points="4141.759 3090.123 4155.901 3104.265 4162.973 3097.194 4148.83 3083.052 4141.759 3090.123" stroke-width="0.79"   stroke-linecap="round" fill="none" layerid="3"/>      <g c_partid="part_pad" c_type="pinpart" layerid="11" c_etype="pinpart">  <ellipse  xmlns="http://www.w3.org/2000/svg" cx="4156.17" cy="3097.08" rx="2.35" ry="2.35" stroke-width="0"  />  <circle cx="4156.17" cy="3097.08" r="1.4" stroke-width="0" /></g>      <g c_partid="part_pad" c_type="pinpart" layerid="11" c_etype="pinpart">  <ellipse  xmlns="http://www.w3.org/2000/svg" cx="4149.06" cy="3090" rx="2.35" ry="2.35" stroke-width="0"  />  <circle cx="4149.06" cy="3090" r="1.4" stroke-width="0" /></g><path d="M 4204.543 3094.012 L 4206.233 3095.702 C 4206.553 3096.022 4206.863 3096.082 4207.123 3095.822 L 4207.663 3095.282 C 4207.913 3095.032 4207.853 3094.712 4207.533 3094.392 L 4206.323 3093.182 L 4206.853 3092.662 L 4208.443 3094.252 L 4208.713 3093.982 L 4206.643 3091.912 L 4205.583 3092.982 L 4207.173 3094.572 C 4207.253 3094.652 4207.263 3094.732 4207.203 3094.792 L 4206.633 3095.362 C 4206.563 3095.432 4206.483 3095.412 4206.403 3095.332 L 4204.813 3093.742 Z  M 4207.123 3096.592 L 4208.803 3098.272 C 4209.123 3098.592 4209.443 3098.662 4209.703 3098.402 L 4210.243 3097.862 C 4210.493 3097.612 4210.433 3097.292 4210.113 3096.972 L 4208.903 3095.762 L 4209.433 3095.242 L 4211.023 3096.832 L 4211.293 3096.562 L 4209.223 3094.492 L 4208.153 3095.552 L 4209.743 3097.152 C 4209.823 3097.222 4209.843 3097.302 4209.783 3097.372 L 4209.203 3097.942 C 4209.143 3098.002 4209.063 3097.992 4208.983 3097.912 L 4207.393 3096.322 Z  M 4209.703 3099.172 L 4211.383 3100.852 C 4211.703 3101.172 4212.023 3101.232 4212.273 3100.982 L 4212.813 3100.442 C 4213.073 3100.182 4213.003 3099.872 4212.693 3099.552 L 4211.483 3098.342 L 4212.003 3097.812 L 4213.593 3099.402 L 4213.863 3099.132 L 4211.803 3097.072 L 4210.733 3098.132 L 4212.323 3099.722 C 4212.403 3099.802 4212.423 3099.882 4212.353 3099.952 L 4211.783 3100.522 C 4211.723 3100.582 4211.643 3100.572 4211.563 3100.492 L 4209.973 3098.902 Z " stroke="none" layerid="3"/> <polyline points="4173.941 3085.08 4202.226 3113.364 4216.368 3099.222 4188.084 3070.938 4173.941 3085.08" stroke-width="0.9"   stroke-linecap="round" fill="none" layerid="3"/>      <circle cx="4180.31" cy="3085.79" r="1" layerid="3" stroke-width="1" fill="none" />      <g c_partid="part_pad" c_type="pinpart" layerid="11" c_etype="pinpart">  <polygon  points="4173.941 3088.262 4177.83 3092.151 4173.941 3096.04 4170.052 3092.151" stroke-linecap="round" stroke-width="0" />  <circle cx="4173.94" cy="3092.15" r="1.4" stroke-width="0" /></g>      <g c_partid="part_pad" c_type="pinpart" layerid="11" c_etype="pinpart">  <ellipse  xmlns="http://www.w3.org/2000/svg" cx="4181" cy="3099.27" rx="2.75" ry="2.75" stroke-width="0"  />  <circle cx="4181" cy="3099.27" r="1.4" stroke-width="0" /></g>      <g c_partid="part_pad" c_type="pinpart" layerid="11" c_etype="pinpart">  <ellipse  xmlns="http://www.w3.org/2000/svg" cx="4188.08" cy="3106.34" rx="2.75" ry="2.75" stroke-width="0"  />  <circle cx="4188.08" cy="3106.34" r="1.4" stroke-width="0" /></g>      <g c_partid="part_pad" c_type="pinpart" layerid="11" c_etype="pinpart">  <ellipse  xmlns="http://www.w3.org/2000/svg" cx="4195.16" cy="3113.4" rx="2.75" ry="2.75" stroke-width="0"  />  <circle cx="4195.16" cy="3113.4" r="1.4" stroke-width="0" /></g>      <g c_partid="part_pad" c_type="pinpart" layerid="11" c_etype="pinpart">  <ellipse  xmlns="http://www.w3.org/2000/svg" cx="4216.37" cy="3092.19" rx="2.75" ry="2.75" stroke-width="0"  />  <circle cx="4216.37" cy="3092.19" r="1.4" stroke-width="0" /></g>      <g c_partid="part_pad" c_type="pinpart" layerid="11" c_etype="pinpart">  <ellipse  xmlns="http://www.w3.org/2000/svg" cx="4209.29" cy="3085.11" rx="2.75" ry="2.75" stroke-width="0"  />  <circle cx="4209.29" cy="3085.11" r="1.4" stroke-width="0" /></g>      <g c_partid="part_pad" c_type="pinpart" layerid="11" c_etype="pinpart">  <ellipse  xmlns="http://www.w3.org/2000/svg" cx="4202.23" cy="3078.05" rx="2.75" ry="2.75" stroke-width="0"  />  <circle cx="4202.23" cy="3078.05" r="1.4" stroke-width="0" /></g>      <g c_partid="part_pad" c_type="pinpart" layerid="11" c_etype="pinpart">  <ellipse  xmlns="http://www.w3.org/2000/svg" cx="4195.16" cy="3070.98" rx="2.75" ry="2.75" stroke-width="0"  />  <circle cx="4195.16" cy="3070.98" r="1.4" stroke-width="0" /></g><path d="M 4225.407 3047.0181 C 4225.157 3047.2681 4225.217 3047.5881 4225.537 3047.9081 L 4226.777 3049.1481 C 4227.087 3049.4681 4227.407 3049.5281 4227.667 3049.2681 L 4229.387 3047.5581 L 4228.907 3047.0781 L 4227.177 3048.8081 C 4227.117 3048.8781 4227.027 3048.8581 4226.947 3048.7881 L 4225.897 3047.7281 C 4225.817 3047.6581 4225.807 3047.5681 4225.867 3047.5081 L 4227.597 3045.7681 L 4227.127 3045.2981 Z  M 4227.727 3050.0981 L 4229.477 3051.8581 C 4229.797 3052.1681 4230.117 3052.2381 4230.377 3051.9781 L 4230.907 3051.4481 C 4231.167 3051.1781 4231.107 3050.8681 4230.787 3050.5481 L 4229.647 3049.3981 C 4229.557 3049.3181 4229.547 3049.2481 4229.607 3049.1781 L 4229.937 3048.8481 C 4230.007 3048.7881 4230.087 3048.7881 4230.167 3048.8781 L 4231.657 3050.3681 L 4231.927 3050.0981 L 4230.337 3048.5081 C 4230.017 3048.1881 4229.697 3048.1281 4229.447 3048.3781 L 4229.147 3048.6881 C 4228.887 3048.9381 4228.947 3049.2581 4229.267 3049.5781 L 4230.417 3050.7181 C 4230.497 3050.7981 4230.517 3050.8781 4230.447 3050.9381 L 4229.877 3051.5181 C 4229.817 3051.5781 4229.727 3051.5681 4229.647 3051.4881 L 4227.997 3049.8281 Z  M 4230.437 3052.8081 L 4232.187 3054.5581 C 4232.497 3054.8681 4232.817 3054.9381 4233.077 3054.6781 L 4233.537 3054.2181 C 4233.727 3054.0281 4233.697 3053.7781 4233.607 3053.6181 C 4233.777 3053.6981 4233.987 3053.7081 4234.177 3053.5181 L 4234.377 3053.3181 C 4234.637 3053.0581 4234.577 3052.7481 4234.257 3052.4281 L 4232.537 3050.7081 Z  M 4231.177 3053.0081 L 4231.947 3052.2481 L 4233.127 3053.4281 C 4233.197 3053.5081 4233.227 3053.5881 4233.157 3053.6481 L 4232.587 3054.2181 C 4232.527 3054.2881 4232.437 3054.2681 4232.357 3054.1981 Z  M 4232.217 3051.9781 L 4232.737 3051.4481 L 4233.887 3052.5981 C 4233.967 3052.6781 4233.977 3052.7581 4233.917 3052.8181 L 4233.587 3053.1581 C 4233.517 3053.2181 4233.437 3053.1981 4233.367 3053.1181 Z  M 4235.337 3054.0481 L 4235.977 3054.6781 L 4234.147 3056.5181 L 4234.617 3056.9881 L 4236.717 3054.8881 L 4235.607 3053.7781 Z " stroke="none" layerid="3"/> <polyline points="4241.183 3058.633 4241.607 3059.057" stroke-width="1"   stroke-linecap="round" fill="none" layerid="3"/> <polyline points="4241.607 3059.057 4242.456 3059.906" stroke-width="1"   stroke-linecap="round" fill="none" layerid="3"/> <polyline points="4242.456 3059.906 4238.92 3063.441" stroke-width="1"   stroke-linecap="round" fill="none" layerid="3"/> <polyline points="4233.971 3068.391 4232.273 3070.088" stroke-width="1"   stroke-linecap="round" fill="none" layerid="3"/> <polyline points="4224.071 3069.381 4222.94 3068.249" stroke-width="1"   stroke-linecap="round" fill="none" layerid="3"/> <polyline points="4213.182 3058.491 4212.05 3057.36" stroke-width="1"   stroke-linecap="round" fill="none" layerid="3"/> <polyline points="4211.343 3049.157 4213.041 3047.46" stroke-width="1"   stroke-linecap="round" fill="none" layerid="3"/> <polyline points="4217.99 3042.51 4221.526 3038.975" stroke-width="1"   stroke-linecap="round" fill="none" layerid="3"/> <polyline points="4221.526 3038.975 4222.374 3039.823" stroke-width="1"   stroke-linecap="round" fill="none" layerid="3"/> <polyline points="4222.374 3039.823 4222.798 3040.248" stroke-width="1"   stroke-linecap="round" fill="none" layerid="3"/> <polyline points="4241.254 3056.582 4224.849 3040.177" stroke-width="1"   stroke-linecap="round" fill="none" layerid="3"/> <polyline points="4241.819 3056.016 4225.415 3039.611" stroke-width="1"   stroke-linecap="round" fill="none" layerid="3"/> <polyline points="4241.183 3057.501 4241.254 3057.43" stroke-width="1"   stroke-linecap="round" fill="none" layerid="3"/> <polyline points="4241.254 3057.43 4241.819 3056.865" stroke-width="1"   stroke-linecap="round" fill="none" layerid="3"/> <polyline points="4223.93 3040.248 4224.001 3040.177" stroke-width="1"   stroke-linecap="round" fill="none" layerid="3"/> <polyline points="4224.001 3040.177 4224.566 3039.611" stroke-width="1"   stroke-linecap="round" fill="none" layerid="3"/> <polyline points="4242.456 3059.906 4244.365 3059.41" stroke-width="1"   stroke-linecap="round" fill="none" layerid="3"/> <polyline points="4244.365 3059.41 4244.083 3058.279" stroke-width="1"   stroke-linecap="round" fill="none" layerid="3"/> <polyline points="4244.083 3058.279 4242.032 3058.774" stroke-width="1"   stroke-linecap="round" fill="none" layerid="3"/> <polyline points="4221.526 3038.975 4222.021 3037.066" stroke-width="1"   stroke-linecap="round" fill="none" layerid="3"/> <polyline points="4222.021 3037.066 4223.152 3037.349" stroke-width="1"   stroke-linecap="round" fill="none" layerid="3"/> <polyline points="4223.152 3037.349 4222.728 3039.329" stroke-width="1"   stroke-linecap="round" fill="none" layerid="3"/>  <path d="M 4241.148 3058.656 A 0.7874 0.7874 -45 0 1 4241.148 3057.536" layerid="3" fill="none"  stroke-linecap="round" stroke-width="1"/>  <path d="M 4241.268 3057.426 A 0.59055 0.59055 -45 0 0 4241.268 3056.596" layerid="3" fill="none"  stroke-linecap="round" stroke-width="1"/>  <path d="M 4241.848 3056.846 A 0.59055 0.59055 -45 0 0 4241.848 3056.006" layerid="3" fill="none"  stroke-linecap="round" stroke-width="1"/>  <path d="M 4225.428 3039.586 A 0.59055 0.59055 -45 0 0 4224.588 3039.586" layerid="3" fill="none"  stroke-linecap="round" stroke-width="1"/>  <path d="M 4224.838 3040.166 A 0.59055 0.59055 -45 0 0 4224.008 3040.166" layerid="3" fill="none"  stroke-linecap="round" stroke-width="1"/>  <path d="M 4223.888 3040.276 A 0.7874 0.7874 -45 0 1 4222.778 3040.276" layerid="3" fill="none"  stroke-linecap="round" stroke-width="1"/>  <path d="M 4242.048 3058.776 A 1.083 1.083 -45 0 0 4241.568 3059.066" layerid="3" fill="none"  stroke-linecap="round" stroke-width="1"/>  <path d="M 4222.668 3039.336 A 1.1811 1.1811 -45 0 1 4222.358 3039.856" layerid="3" fill="none"  stroke-linecap="round" stroke-width="1"/>      <g c_partid="part_pad" c_type="pinpart" layerid="1" c_etype="pinpart">  <polygon  points="4228.381 3075.324 4223.926 3070.869 4227.823 3066.973 4232.277 3071.428" stroke-linecap="round" stroke-width="0" /></g>      <g c_partid="part_pad" c_type="pinpart" layerid="1" c_etype="pinpart">  <polygon  points="4210.562 3057.505 4206.107 3053.05 4210.003 3049.154 4214.458 3053.609" stroke-linecap="round" stroke-width="0" /></g>      <g c_partid="part_pad" c_type="pinpart" layerid="1" c_etype="pinpart">  <polygon  points="4235.735 3068.826 4231.697 3064.788 4235.318 3061.168 4239.355 3065.205" stroke-linecap="round" stroke-width="0" /></g>      <g c_partid="part_pad" c_type="pinpart" layerid="1" c_etype="pinpart">  <polygon  points="4216.643 3049.734 4212.606 3045.696 4216.226 3042.076 4220.264 3046.113" stroke-linecap="round" stroke-width="0" /></g>      <g c_partid="part_pad" c_type="pinpart" layerid="1" c_etype="pinpart">  <polygon  points="4229.304 3064.063 4224.015 3058.774 4229.304 3053.485 4234.593 3058.774" stroke-linecap="round" stroke-width="0" /></g>      <g c_partid="part_pad" c_type="pinpart" layerid="1" c_etype="pinpart">  <polygon  points="4222.657 3057.416 4217.368 3052.127 4222.657 3046.838 4227.946 3052.127" stroke-linecap="round" stroke-width="0" /></g>      <g c_partid="part_pad" c_type="pinpart" layerid="1" c_etype="pinpart">  <polygon  points="4220.84 3068.914 4219.73 3067.804 4223.484 3064.049 4224.595 3065.159" stroke-linecap="round" stroke-width="0" /></g>      <g c_partid="part_pad" c_type="pinpart" layerid="1" c_etype="pinpart">  <polygon  points="4213.627 3061.701 4212.517 3060.591 4216.272 3056.837 4217.382 3057.947" stroke-linecap="round" stroke-width="0" /></g>      <g c_partid="part_pad" c_type="pinpart" layerid="1" c_etype="pinpart">  <polygon  points="4219.072 3067.146 4217.962 3066.036 4221.717 3062.281 4222.827 3063.391" stroke-linecap="round" stroke-width="0" /></g>      <g c_partid="part_pad" c_type="pinpart" layerid="1" c_etype="pinpart">  <polygon  points="4215.395 3063.469 4214.285 3062.359 4218.04 3058.604 4219.15 3059.714" stroke-linecap="round" stroke-width="0" /></g>      <g c_partid="part_pad" c_type="pinpart" layerid="1" c_etype="pinpart">  <polygon  points="4217.234 3065.308 4216.123 3064.198 4219.878 3060.443 4220.988 3061.553" stroke-linecap="round" stroke-width="0" /></g> <polyline points="4033.071 3019.882 4505.321 3019.882 4505.321 3177.562 4023.041 3177.562 4023.041 3019.882 4033.071 3019.882" stroke-width="1"   stroke-linecap="round" fill="none" layerid="10"/></g></svg>