<?xml version="1.0" encoding="utf-8"?>
<!-- Generator: Adobe Illustrator 16.0.0, SVG Export Plug-In . SVG Version: 6.00 Build 0)  -->
<!DOCTYPE svg PUBLIC "-//W3C//DTD SVG 1.1//EN" "http://www.w3.org/Graphics/SVG/1.1/DTD/svg11.dtd">
<svg version="1.1" id="Layer_1" xmlns="http://www.w3.org/2000/svg" xmlns:xlink="http://www.w3.org/1999/xlink" x="0px" y="0px"
	 width="367.2px" height="131.832px" viewBox="0 0 367.2 131.832" enable-background="new 0 0 367.2 131.832" xml:space="preserve">
<rect fill="#FFFFFF" width="367.199" height="131.832"/>
<polyline fill="none" stroke="#000000" stroke-width="2" stroke-linecap="round" stroke-linejoin="round" points="223.371,53.188 
	232.828,53.188 247.633,67.992 252.313,67.992 259.539,60.762 283.633,60.762 288.594,65.723 292.281,65.723 300.926,57.078 
	313.715,57.078 316.648,60.012 "/>
<polyline fill="none" stroke="#000000" stroke-width="2" stroke-linecap="round" stroke-linejoin="round" points="128.223,69.406 
	128.609,69.406 131.313,66.703 138.652,66.703 145.711,73.762 176.199,73.762 181.676,68.281 "/>
<polyline fill="none" stroke="#000000" stroke-width="1.1339" stroke-linecap="round" stroke-linejoin="round" points="
	175.137,42.918 179.207,43.57 179.926,44.293 190.008,44.293 190.727,45.012 196.488,45.012 197.207,45.73 202.965,45.73 
	211.605,47.172 221.688,48.613 231.766,49.332 236.805,49.332 241.125,46.453 250.488,42.133 252.648,42.133 256.801,45.012 
	260.488,49.547 264.453,52.715 268.992,54.121 276.645,54.398 318.879,45.012 341.559,42.203 346.094,42.203 337.305,48.164 
	332.77,49.836 328.23,53.832 319.16,58.621 302.723,67.719 301.023,74.242 297.055,77.629 292.23,76.223 289.402,74.242 
	278.91,66.332 274.375,66.324 264.172,68.008 261.055,70.84 257.09,75.66 255.672,77.051 249.715,77.051 243.762,75.941 
	237.809,75.109 228.172,75.109 225.055,75.66 223.918,78.492 219.102,83.879 212.016,88.426 191.605,79.646 159.57,81.328 
	159.293,81.328 "/>
<polyline fill="none" stroke="#000000" stroke-width="0.5669" stroke-linecap="round" stroke-linejoin="round" points="
	126.691,86.293 128.109,92.672 127.402,101.879 125.984,108.258 118.188,106.84 105.438,97.633 97.641,86.293 93.43,82.871 
	84.879,79.207 65.75,78.496 49.449,73.535 "/>
<polyline fill="none" stroke="#000000" stroke-width="0.5669" stroke-linecap="round" stroke-linejoin="round" points="
	49.449,73.531 44.77,71.691 39.953,69.141 "/>
<polyline fill="none" stroke="#000000" stroke-width="0.5669" stroke-linecap="round" stroke-linejoin="round" points="
	39.953,69.141 30.313,66.586 19.539,58.082 26.914,55.535 52.422,50.148 71.984,48.449 75.672,46.742 104.578,43.914 
	117.965,43.078 118.188,43.063 "/>
<polyline fill="none" stroke="#000000" stroke-width="0.5669" stroke-linecap="round" stroke-linejoin="round" points="
	118.188,43.059 126.039,40.793 127.059,40.48 133.238,36.398 139.168,31.691 "/>
<polyline fill="none" stroke="#000000" stroke-linecap="round" stroke-linejoin="round" points="147.563,35.543 147.563,34.629 
	144.199,31.266 "/>
<polyline fill="none" stroke="#000000" stroke-width="2" stroke-linecap="round" stroke-linejoin="round" points="148.629,25.926 
	148.637,25.926 153.113,30.402 "/>
<polyline fill="none" stroke="#000000" stroke-width="1.1339" stroke-linecap="round" stroke-linejoin="round" points="
	148.629,25.926 145.898,25.926 141.855,29.965 140.895,29.965 139.168,31.691 "/>
<polyline fill="none" stroke="#000000" stroke-width="1.1339" stroke-linecap="round" stroke-linejoin="round" points="
	144.199,31.266 144.199,30.75 142.637,29.188 "/>
<polyline fill="none" stroke="#000000" stroke-width="1.1339" stroke-linecap="round" stroke-linejoin="round" points="
	152.754,40.742 152.754,40.758 149.852,43.656 "/>
<polyline fill="none" stroke="#000000" stroke-width="2" stroke-linecap="round" stroke-linejoin="round" points="157.031,44.098 
	157.953,44.098 162.379,39.668 "/>
<polyline fill="none" stroke="#000000" stroke-width="2" stroke-linecap="round" stroke-linejoin="round" points="162.379,39.668 
	162.371,39.668 157.895,35.191 "/>
<polyline fill="none" stroke="#000000" stroke-width="2" stroke-linecap="round" stroke-linejoin="round" points="157.895,35.191 
	157.895,35.184 153.113,30.402 "/>
<polyline fill="none" stroke="#000000" stroke-width="2" stroke-linecap="round" stroke-linejoin="round" points="133.313,43.945 
	133.574,43.945 137.832,39.688 145.883,39.688 149.852,43.656 "/>
<polyline fill="none" stroke="#000000" stroke-width="2" stroke-linecap="round" stroke-linejoin="round" points="168.637,55.25 
	168.637,45.926 162.379,39.668 "/>
<polyline fill="none" stroke="#000000" stroke-width="2" stroke-linecap="round" stroke-linejoin="round" points="123.125,64.316 
	123.609,64.316 127.824,60.098 137.523,60.098 143.496,54.125 "/>
<polyline fill="none" stroke="#000000" stroke-width="2" stroke-linecap="round" stroke-linejoin="round" points="149.852,43.656 
	149.852,43.715 167.426,61.289 170.316,61.289 180.379,51.227 180.379,44.75 179.762,44.133 "/>
<polyline fill="none" stroke="#000000" stroke-width="2" stroke-linecap="round" stroke-linejoin="round" points="138.402,49.035 
	138.402,49.008 140.895,46.52 147.129,46.52 166.234,65.625 171.621,65.625 180.266,56.98 201.34,56.98 201.355,56.992 "/>
<polyline fill="none" stroke="#000000" stroke-width="2" stroke-linecap="round" stroke-linejoin="round" points="201.355,56.992 
	201.355,57.77 204.277,60.691 209.059,60.691 212.148,57.605 "/>
<polyline fill="none" stroke="#000000" stroke-width="2" stroke-linecap="round" stroke-linejoin="round" points="212.148,57.605 
	218.563,57.605 229.703,68.742 238.348,68.742 238.656,68.434 "/>
<polyline fill="none" stroke="#000000" stroke-width="2" stroke-linecap="round" stroke-linejoin="round" points="133.313,74.496 
	140.098,74.496 146.531,80.934 "/>
<polyline fill="none" stroke="#000000" stroke-width="2" stroke-linecap="round" stroke-linejoin="round" points="139.332,80.934 
	132.047,80.934 126.691,86.289 "/>
<polyline fill="none" stroke="#000000" stroke-width="1.1339" stroke-linecap="round" stroke-linejoin="round" points="
	162.922,49.691 163.078,49.691 168.637,55.25 "/>
<polyline fill="none" stroke="#000000" stroke-width="2" stroke-linecap="round" stroke-linejoin="round" points="181.676,68.281 
	181.871,68.281 187.012,73.422 "/>
<polyline fill="none" stroke="#000000" stroke-width="2" stroke-linecap="round" stroke-linejoin="round" points="110.402,88.543 
	111.879,89.73 116.914,94.762 116.914,99.184 125.984,108.258 "/>
<polyline fill="none" stroke="#000000" stroke-width="2" stroke-linecap="round" stroke-linejoin="round" points="133.313,74.496 
	133.07,74.496 129.953,77.617 117.934,77.617 116.262,75.941 109.91,75.941 105.348,80.508 105.348,83.418 105.32,83.445 "/>
<polyline fill="none" stroke="#000000" stroke-width="2" stroke-linecap="round" stroke-linejoin="round" points="70.625,60.332 
	70.625,59.871 72.977,57.52 79.488,57.52 84.418,62.449 "/>
<polyline fill="none" stroke="#000000" stroke-width="2" stroke-linecap="round" stroke-linejoin="round" points="65.531,65.422 
	65.602,65.422 69.176,69 79.352,69 85.25,74.896 85.25,78.836 84.879,79.203 "/>
<polyline fill="none" stroke="#000000" stroke-width="2" stroke-linecap="round" stroke-linejoin="round" points="128.223,69.406 
	128.223,69.422 124.992,72.656 104.758,72.656 99.691,77.723 "/>
<polyline fill="none" stroke="#000000" stroke-width="1.1339" stroke-linecap="round" stroke-linejoin="round" points="
	228.297,58.246 228.297,58.086 223.371,53.16 "/>
<polyline fill="none" stroke="#000000" stroke-width="1.1339" stroke-linecap="round" stroke-linejoin="round" points="
	233.891,63.848 234.07,63.848 238.656,68.434 "/>
<polyline fill="none" stroke="#000000" stroke-width="2" stroke-linecap="round" stroke-linejoin="round" points="146.531,80.934 
	150.586,80.934 153.789,77.73 179.004,77.73 181.453,80.176 "/>
<polyline fill="none" stroke="#000000" stroke-width="2" stroke-linecap="round" stroke-linejoin="round" points="84.418,62.449 
	84.418,62.516 89.234,67.332 "/>
<polyline fill="none" stroke="#000000" stroke-width="2" stroke-linecap="round" stroke-linejoin="round" points="94.828,72.934 
	94.902,72.934 99.691,77.723 "/>
<polyline fill="none" stroke="#000000" stroke-width="2" stroke-linecap="round" stroke-linejoin="round" points="201.965,67.785 
	193.625,67.785 188.57,62.734 180.293,62.734 173.207,69.82 147.25,69.82 137.527,60.094 "/>
<polyline fill="none" stroke="#000000" stroke-width="2" stroke-linecap="round" stroke-linejoin="round" points="123.121,64.348 
	123.121,64.805 120.359,67.566 110.039,67.566 105.242,62.77 "/>
<polyline fill="none" stroke="#000000" stroke-width="2" stroke-linecap="round" stroke-linejoin="round" points="118.035,59.219 
	118.035,59.68 115.258,62.461 112.281,62.461 107.602,57.785 100.234,57.785 100.125,57.672 "/>
<polyline fill="none" stroke="#000000" stroke-width="2" stroke-linecap="round" stroke-linejoin="round" points="100.125,57.672 
	90.836,57.672 79.531,46.367 "/>
<path d="M264.789,96.461h0.809v-2.332h0.949c0.145,0,0.203,0.055,0.203,0.142v2.19h0.805v-2.332h0.949
	c0.145,0,0.203,0.055,0.203,0.142v2.19h0.805v-2.133c0-0.43-0.316-0.641-0.863-0.641h-3.859V96.461z M261.621,95.875v-0.566
	c0-0.086,0.059-0.152,0.203-0.152h1.41v0.871h-1.41C261.68,96.027,261.621,95.969,261.621,95.875z M260.816,95.82
	c0,0.43,0.316,0.641,0.863,0.641h2.363v-2.133c0-0.43-0.32-0.641-0.867-0.641h-2.129v0.441h1.984c0.145,0,0.203,0.055,0.203,0.142
	v0.456h-1.555c-0.547,0-0.863,0.207-0.863,0.641V95.82z M258.34,95.82c0,0.43,0.316,0.641,0.863,0.641h1.035v-0.434h-0.891
	c-0.145,0-0.203-0.059-0.203-0.152v-1.746h1.094v-0.441h-1.094v-1.035h-0.805V95.82z M256.785,93.234h0.805v-0.582h-0.805V93.234z
	 M256.785,96.461h0.805v-2.773h-0.805V96.461z M251.887,96.461h0.863V94.59h2.363v1.871h0.863v-3.809h-0.863v1.438h-2.363v-1.438
	h-0.863V96.461z M246.645,96.027v-1.898h1.414c0.145,0,0.199,0.055,0.199,0.142v1.604c0,0.094-0.055,0.152-0.199,0.152H246.645z
	 M245.84,97.664h0.805v-1.203h1.559c0.547,0,0.863-0.211,0.863-0.641v-1.492c0-0.43-0.316-0.641-0.863-0.641h-2.363V97.664z
	 M244.285,93.234h0.805v-0.582h-0.805V93.234z M244.285,96.461h0.805v-2.773h-0.805V96.461z M241.809,96.461h0.805v-2.19
	c0-0.087,0.059-0.142,0.203-0.142h0.891v-0.441h-1.035c-0.547,0-0.863,0.211-0.863,0.641V96.461z M240.254,93.234h0.805v-0.582
	h-0.805V93.234z M240.254,96.461h0.805v-2.773h-0.805V96.461z M235.414,96.461h3.168c0.574,0,0.922-0.238,0.922-0.69v-0.989
	c0-0.453-0.348-0.691-0.922-0.691h-2.074c-0.145,0-0.23-0.055-0.23-0.164v-0.613c0-0.105,0.086-0.164,0.23-0.164h2.707v-0.496
	h-2.879c-0.578,0-0.922,0.238-0.922,0.691v0.555c0,0.453,0.344,0.691,0.922,0.691h2.074c0.145,0,0.23,0.056,0.23,0.164v1.035
	c0,0.117-0.086,0.18-0.23,0.18h-2.996V96.461z M229.422,95.82c0,0.43,0.32,0.641,0.867,0.641h2.359v-2.773h-0.805v2.34h-1.414
	c-0.141,0-0.199-0.059-0.199-0.152v-2.188h-0.809V95.82z M227.867,93.234h0.809v-0.582h-0.809V93.234z M227.867,96.461h0.809v-2.773
	h-0.809V96.461z M222.973,96.461h0.863V94.59h2.363v1.871h0.862v-3.809h-0.862v1.438h-2.363v-1.438h-0.863V96.461z"/>
<path d="M45.75,72.613c3.312,2.805,10.227,4.605,28.73,7.484c8.782,1.371,17.208,2.953,18.575,3.457
	c1.441,0.578,3.961,3.312,5.687,6.191c1.731,2.883,5.039,7.274,7.418,9.867c4.32,4.75,17.926,14.469,20.305,14.469
	c1.941,0,2.301-2.305,2.59-15.91c0.215-9.863-0.071-12.746-1.223-13.898c-0.793-0.789-4.824-2.375-8.855-3.527
	c-8.352-2.375-8.426-1.367-0.075,1.945c7.489,2.954,7.993,3.602,7.993,9.289c0,8.926-3.743,14.832-8.641,13.605
	c-3.672-1.008-13.606-10.871-18.789-18.789c-4.035-6.195-4.684-6.77-10.153-8.355c-4.105-1.148-6.121-1.367-6.554-0.645
	c-1.223,2.016-18.649-0.867-34.414-5.691l-4.969-1.512L45.75,72.613 M43.086,57.418c-3.383,1.152-6.191,2.449-6.191,3.023
	c0,0.508,2.089,0.938,4.753,0.868c4.965-0.075,14.977-1.586,11.95-1.801c-2.375-0.215-2.16-1.656,0.504-2.953
	C58.207,54.539,50.07,55.187,43.086,57.418 M243.824,44.316l-6.48,4.102l-9.504-0.574c-5.184-0.36-17.281-1.727-26.93-3.098
	c-9.648-1.367-20.879-2.664-25.055-3.023l-7.488-0.504l6.047,2.015c3.891,1.297,9.504,2.161,15.984,2.379
	c5.473,0.215,15.121,1.149,21.383,2.016c6.266,0.933,14.762,1.726,18.938,1.871c7.129,0.215,7.992,0,12.746-3.023
	c7.414-4.825,10.224-4.465,15.766,1.941c4.32,5.043,4.754,5.258,11.09,6.051c5.832,0.718,8.422,0.359,22.824-3.242
	c18.863-4.606,37.871-8.063,44.496-8.063h4.68l-3.672,2.52c-2.016,1.441-3.961,2.519-4.25,2.519s-2.664,1.656-5.184,3.672
	c-5.688,4.32-14.398,8.93-20.016,10.441c-5.328,1.438-9,4.461-11.16,9.071c-0.938,2.016-2.449,3.816-3.312,3.961
	c-0.863,0.215-4.32-1.945-7.633-4.754c-5.543-4.68-6.48-5.11-11.23-5.11c-2.809,0-8.352,0.504-12.312,1.078
	c-7.777,1.227-11.305,2.954-5.902,2.954h3.238l-2.23,3.098c-2.953,4.032-4.968,4.391-13.32,2.445
	c-6.84-1.656-12.457-1.582-26.711,0.145c-5.906,0.719-5.187,2.449,1.008,2.449h4.605l-2.879,3.094
	c-1.656,1.73-4.176,3.746-5.617,4.539c-3.023,1.582-4.246,1.293-17.352-4.465l-7.055-3.023l-16.992,1.367
	c-9.289,0.793-17.426,1.512-17.93,1.582c-0.574,0.074,0.793,0.504,2.953,0.938c2.231,0.434,10.656,0.434,18.649-0.145l14.687-0.863
	l9.574,4.68c9.434,4.609,9.578,4.68,12.242,2.879c5.113-3.312,11.449-9.934,10.945-11.305c-0.793-2.086,13.68-1.727,23.469,0.648
	c8.496,2.09,9.867,1.945,9.867-0.574c0-0.793,1.797-3.242,3.957-5.402c3.531-3.527,4.68-4.031,10.512-4.68l6.48-0.649l8.281,7.129
	c9.504,8.281,15.695,11.953,21.672,12.961c4.105,0.648,4.176,0.574,3.238-1.801c-0.504-1.297-2.52-5.109-4.535-8.422
	c-1.941-3.312-3.598-6.336-3.598-6.77c0-1.078,13.176-9.144,22.32-13.68c4.246-2.089,7.703-4.39,7.703-5.039
	c0-0.937,0.863-0.937,3.457-0.144c3.383,1.008,3.598,0.933,7.918-3.887c2.449-2.738,4.105-5.328,3.742-5.762
	c-1.727-1.8-28.727,2.52-56.52,9c-15.406,3.528-23.832,4.246-27.789,2.305c-1.297-0.578-4.25-3.527-6.699-6.551
	c-2.879-3.676-5.039-5.472-6.477-5.472C251.312,40.211,247.422,42.082,243.824,44.316 M157.352,17.676
	c-3.243,1.582-11.45,7.273-18.215,12.527l-12.242,9.719l-7.27,0.648c-22.18,2.09-46.297,5.114-61.777,7.778
	c-18.145,3.093-37.871,7.632-39.313,8.925c-1.297,1.297,6.336,7.274,13.246,10.442c6.266,2.879,6.625,2.953,14.043,1.871
	c4.102-0.648,9.145-1.293,11.016-1.512c1.941-0.285-1.656-0.215-7.992,0c-10.512,0.359-11.879,0.219-16.489-2.015
	c-2.734-1.297-5.902-3.168-6.984-4.032c-1.871-1.511-1.801-1.511,1.297-0.504c1.801,0.649,3.527,0.864,3.816,0.575
	c0.285-0.215-1.8-1.078-4.539-1.797c-2.804-0.723-5.109-1.586-5.109-1.946c0-0.793,15.047-4.25,31.535-7.199
	c10.512-1.871,17.352-2.09,22.465-0.793c1.008,0.289,1.437-0.215,1.297-1.297c-0.434-2.445,4.965-3.238,23.328-3.312
	c12.887-0.07,16.773-0.43,19.512-1.727c1.871-0.937,5.253-2.23,7.558-2.808c2.52-0.719,7.488-3.887,12.887-8.207
	c4.824-3.887,9.723-7.344,10.875-7.633c1.223-0.359,5.039-0.43,8.637-0.289c6.914,0.363,6.984,0.433,5.472,6.121
	c-0.574,2.23-0.144,3.312,2.305,5.832c1.656,1.727,3.527,3.098,4.176,3.098c0.648,0,0.504-0.649-0.43-1.586
	c-2.449-2.52-2.883-5.903-1.516-13.75c1.082-6.77,1.008-7.418-0.644-8.715C165.703,14.219,164.117,14.434,157.352,17.676"/>
<circle cx="146.527" cy="80.957" r="2.664"/>
<circle fill="#FFFFFF" cx="146.527" cy="80.957" r="1.441"/>
<circle cx="139.328" cy="80.957" r="2.664"/>
<circle fill="#FFFFFF" cx="139.327" cy="80.957" r="1.439"/>
<path d="M171.309,55.262c0,1.468-1.192,2.664-2.664,2.664c-1.469,0-2.665-1.196-2.665-2.664c0-1.473,1.196-2.664,2.665-2.664
	C170.117,52.598,171.309,53.789,171.309,55.262z"/>
<path fill="#FFFFFF" d="M169.922,55.262c0,0.703-0.574,1.273-1.277,1.273c-0.704,0-1.274-0.57-1.274-1.273
	c0-0.707,0.57-1.278,1.274-1.278C169.348,53.984,169.922,54.555,169.922,55.262z"/>
<circle cx="181.676" cy="68.305" r="2.664"/>
<path fill="#FFFFFF" d="M182.953,68.305c0,0.707-0.57,1.277-1.277,1.277c-0.703,0-1.274-0.57-1.274-1.277
	c0-0.703,0.571-1.273,1.274-1.273C182.383,67.031,182.953,67.602,182.953,68.305z"/>
<path stroke="#000000" stroke-miterlimit="10" d="M72.965,60.359c0,1.289-1.047,2.34-2.34,2.34s-2.34-1.051-2.34-2.34
	c0-1.293,1.047-2.339,2.34-2.339S72.965,59.066,72.965,60.359z"/>
<circle fill="#FFFFFF" cx="70.625" cy="60.359" r="1.367"/>
<path stroke="#000000" stroke-miterlimit="10" d="M67.867,65.457c0,1.289-1.047,2.34-2.34,2.34s-2.339-1.051-2.339-2.34
	c0-1.293,1.046-2.34,2.339-2.34S67.867,64.164,67.867,65.457z"/>
<circle fill="#FFFFFF" cx="65.528" cy="65.457" r="1.367"/>
<circle cx="84.414" cy="62.473" r="2.664"/>
<circle fill="#FFFFFF" cx="84.413" cy="62.473" r="1.275"/>
<circle cx="99.684" cy="77.746" r="2.664"/>
<circle fill="#FFFFFF" cx="99.684" cy="77.746" r="1.273"/>
<circle stroke="#000000" stroke-miterlimit="10" cx="212.148" cy="57.629" r="1.699"/>
<circle fill="#FFFFFF" cx="212.146" cy="57.629" r="1.131"/>
<circle stroke="#000000" stroke-miterlimit="10" cx="201.961" cy="67.816" r="1.699"/>
<circle fill="#FFFFFF" cx="201.959" cy="67.816" r="1.131"/>
<circle stroke="#000000" stroke-miterlimit="10" cx="201.355" cy="57.016" r="1.699"/>
<path fill="#FFFFFF" d="M202.484,57.016c0,0.625-0.504,1.132-1.129,1.132s-1.129-0.507-1.129-1.132c0-0.621,0.504-1.129,1.129-1.129
	S202.484,56.395,202.484,57.016z"/>
<path stroke="#000000" stroke-miterlimit="10" d="M107.012,83.477c0,0.934-0.754,1.691-1.692,1.691
	c-0.933,0-1.691-0.758-1.691-1.691s0.758-1.691,1.691-1.691C106.258,81.785,107.012,82.543,107.012,83.477z"/>
<path fill="#FFFFFF" d="M106.328,83.477c0,0.559-0.449,1.008-1.008,1.008c-0.554,0-1.008-0.449-1.008-1.008
	c0-0.555,0.454-1.008,1.008-1.008C105.879,82.469,106.328,82.922,106.328,83.477z"/>
<path stroke="#000000" stroke-miterlimit="10" d="M112.109,88.559c0,0.938-0.754,1.695-1.691,1.695
	c-0.934,0-1.691-0.758-1.691-1.695c0-0.934,0.757-1.691,1.691-1.691C111.355,86.867,112.109,87.625,112.109,88.559z"/>
<circle fill="#FFFFFF" cx="110.418" cy="88.559" r="1.008"/>
<circle stroke="#000000" stroke-miterlimit="10" cx="105.242" cy="62.77" r="1.692"/>
<circle fill="#FFFFFF" cx="105.242" cy="62.77" r="1.008"/>
<circle stroke="#000000" stroke-miterlimit="10" cx="100.123" cy="57.672" r="1.693"/>
<circle fill="#FFFFFF" cx="100.125" cy="57.672" r="1.008"/>
<rect x="116.06" y="57.243" transform="matrix(-0.7066 -0.7077 0.7077 -0.7066 159.5313 184.5953)" width="3.958" height="3.955"/>
<circle fill="#FFFFFF" cx="118.035" cy="59.219" r="1.008"/>
<circle stroke="#000000" stroke-miterlimit="10" cx="123.122" cy="64.348" r="1.98"/>
<path fill="#FFFFFF" d="M124.129,64.348c0,0.554-0.453,1.007-1.008,1.007c-0.559,0-1.008-0.453-1.008-1.007
	c0-0.559,0.449-1.008,1.008-1.008C123.676,63.34,124.129,63.789,124.129,64.348z"/>
<circle stroke="#000000" stroke-miterlimit="10" cx="128.219" cy="69.438" r="1.981"/>
<circle fill="#FFFFFF" cx="128.219" cy="69.438" r="1.008"/>
<circle stroke="#000000" stroke-miterlimit="10" cx="133.316" cy="74.521" r="1.98"/>
<circle fill="#FFFFFF" cx="133.317" cy="74.521" r="1.008"/>
<circle stroke="#000000" stroke-miterlimit="10" cx="148.585" cy="59.25" r="1.98"/>
<circle fill="#FFFFFF" cx="148.586" cy="59.25" r="1.008"/>
<circle stroke="#000000" stroke-miterlimit="10" cx="143.488" cy="54.152" r="1.98"/>
<path fill="#FFFFFF" d="M144.496,54.152c0,0.555-0.449,1.008-1.008,1.008c-0.554,0-1.008-0.453-1.008-1.008
	c0-0.558,0.454-1.007,1.008-1.007C144.047,53.145,144.496,53.594,144.496,54.152z"/>
<circle stroke="#000000" stroke-miterlimit="10" cx="138.406" cy="49.066" r="1.981"/>
<path fill="#FFFFFF" d="M139.414,49.066c0,0.559-0.453,1.008-1.008,1.008c-0.558,0-1.008-0.449-1.008-1.008
	c0-0.554,0.45-1.007,1.008-1.007C138.961,48.059,139.414,48.512,139.414,49.066z"/>
<circle stroke="#000000" stroke-miterlimit="10" cx="133.316" cy="43.977" r="1.98"/>
<circle fill="#FFFFFF" cx="133.317" cy="43.977" r="1.008"/>
<rect x="154.765" y="42.117" transform="matrix(0.7071 0.7071 -0.7071 0.7071 77.177 -98.1226)" width="4.535" height="3.966"/>
<rect x="141.934" y="29.285" transform="matrix(0.7072 0.7071 -0.7071 0.7072 64.3382 -92.8037)" width="4.541" height="3.969"/>
<rect x="160.324" y="37.826" transform="matrix(0.707 0.7072 -0.7072 0.707 75.6226 -103.207)" width="4.11" height="3.687"/>
<rect x="146.577" y="24.081" transform="matrix(0.707 0.7072 -0.7072 0.707 61.8853 -97.5207)" width="4.111" height="3.687"/>
<rect x="155.205" y="32.498" transform="matrix(0.707 0.7072 -0.7072 0.707 71.1474 -101.3551)" width="5.386" height="5.383"/>
<rect x="150.42" y="27.71" transform="matrix(0.707 0.7072 -0.7072 0.707 66.3685 -99.3791)" width="5.386" height="5.385"/>
<polygon points="151.805,42.488 151.004,41.691 153.707,38.988 154.508,39.785 "/>
<rect x="146.998" y="33.633" transform="matrix(0.7071 0.7071 -0.7071 0.7071 68.3547 -93.933)" width="1.132" height="3.823"/>
<rect x="150.919" y="37.555" transform="matrix(0.7054 0.7088 -0.7088 0.7054 72.6064 -95.7493)" width="1.13" height="3.823"/>
<rect x="148.271" y="34.906" transform="matrix(0.7058 0.7084 -0.7084 0.7058 69.8682 -94.6043)" width="1.129" height="3.823"/>
<rect x="149.595" y="36.232" transform="matrix(0.7054 0.7088 -0.7088 0.7054 71.2778 -95.2005)" width="1.13" height="3.822"/>
<rect x="231.625" y="61.293" transform="matrix(0.7071 0.7071 -0.7071 0.7071 113.6511 -146.6871)" width="4.535" height="5.105"/>
<rect x="226.027" y="55.696" transform="matrix(0.7071 0.7071 -0.7071 0.7071 108.0536 -144.3684)" width="4.535" height="5.104"/>
<rect x="92.566" y="70.377" transform="matrix(0.7071 0.7071 -0.7071 0.7071 79.3456 -45.697)" width="4.535" height="5.106"/>
<rect x="86.965" y="64.778" transform="matrix(0.7071 0.7072 -0.7072 0.7071 73.7536 -43.3775)" width="4.535" height="5.105"/>
<path d="M150.113,103.449c-0.215,0.285-0.718,0.863-1.078,1.223c-1.297,1.297-2.664,2.016-4.609,2.449
	c-0.574,0.141-0.864,0.141-1.942,0.141c-1.656,0-2.593-0.215-4.105-1.008l-0.719-0.285l-0.363,0.43
	c-0.215,0.359-0.215,0.504-0.215,0.504c0.145,0.145,1.367,0.793,2.09,1.008c1.223,0.434,1.871,0.578,3.383,0.578
	c1.152,0,1.441-0.074,2.015-0.218c1.082-0.216,1.727-0.431,2.594-0.864c1.656-0.719,2.805-1.727,3.816-3.094
	c0.141-0.219,0.36-0.504,0.43-0.578c0.074-0.214,0.074-0.214-0.289-0.43c-0.215-0.145-0.43-0.289-0.504-0.289
	C150.477,102.941,150.477,102.941,150.113,103.449 M148.531,102.871c-0.289,0.359-1.441,1.367-2.015,1.727
	c-0.864,0.504-1.871,0.867-3.098,1.008l-0.359,0.074l0.07,0.43v0.504h0.219c0.429,0,1.437-0.285,2.086-0.43
	c1.371-0.504,2.593-1.297,3.527-2.375c0.648-0.723,0.648-0.723,0.219-0.938c-0.219-0.145-0.434-0.289-0.434-0.289
	S148.602,102.727,148.531,102.871 M143.852,100.062c0,0.074-0.075,0.145-0.145,0.145c0,0-0.074,0.074-0.145,0.145
	c0,0.07-0.07,0.145-0.07,0.07c0-0.141-0.144-0.141-0.219,0c-0.144,0.145-0.429,0.145-0.359-0.07c0-0.07-0.07-0.145-0.144-0.145
	c-0.141,0-0.36,0.145-0.286,0.215c0,0.074,0,0.145-0.074,0.145c-0.07,0-0.215,0.074-0.289,0.434c-0.285,0.504-0.285,0.574,0,0.719
	c0.145,0.145,0.219,0.145,0.145-0.07c-0.071-0.074-0.071-0.145,0-0.219c0,0,0.074-0.07,0.074-0.141c0-0.074,0.43-0.144,0.648-0.144
	c0.071,0.069,0.215,0.069,0.285,0.144c0.075,0.141,0.219,0,0.434-0.434c0.145-0.215,0.215-0.434,0.289-0.504
	c0.145-0.07,0.145-0.145,0.145-0.215C144.066,99.992,143.922,99.992,143.852,100.062 M144.066,99.488
	c-0.07,0.145-0.07,0.145-0.144,0.07c0-0.145-0.07-0.215-0.215-0.07c-0.145,0.07,0.07,0.359,0.359,0.43
	c0.215,0,0.289,0.074,0.289,0.145c0.071,0.219,0.43,0.434,0.934,0.723l0.434,0.215l-0.145-0.215c-0.07-0.074-0.215-0.219-0.43-0.363
	c-0.218-0.141-0.289-0.215-0.289-0.359c0-0.07-0.144-0.215-0.214-0.289l-0.29-0.141l0.145-0.074
	c0.215-0.145,0.215-0.145-0.074-0.145C144.211,99.344,144.141,99.414,144.066,99.488 M140.324,99.414c0,0.219,0,0.359-0.074,0.434
	c-0.145,0.434-0.07,0.938,0.219,0.938c0.14,0,0.14,0,0-0.145c-0.145-0.219-0.145-0.219,0-0.145c0.215,0.07,0.285,0,0.14-0.145
	c-0.14-0.145-0.14-0.145,0.075-0.215c0.07-0.074,0.214-0.074,0.429-0.074c0.364,0.074,0.364,0.074,0.504-0.145
	c0.145-0.285,0.145-0.504,0-0.647c-0.14-0.071-0.215-0.071-0.215,0c0,0.144-0.289,0.144-0.504,0c-0.07,0-0.144-0.071-0.214,0
	c-0.075,0-0.075,0-0.145-0.071c0,0-0.07-0.07-0.144-0.07C140.324,99.129,140.324,99.199,140.324,99.414 M139.242,97.902
	c-0.144,0.074-0.144,0.074,0.074,0.145c0.36,0.074,0.789,0.074,1.079,0l0.214-0.07l-0.359-0.074H139.242 M143.707,96.896
	c-0.215,0.144-0.359,0.358-0.434,0.792c0,0.145-0.144,0.359-0.285,0.504c-0.433,0.504-0.504,0.793-0.289,1.079
	c0.071,0.073,0.145,0.144,0.289,0.073c0.071,0,0.141-0.073,0.071-0.073c0-0.071,0.07-0.071,0.07-0.071
	c0.144,0,0.144-0.145,0.074-0.215c-0.074,0-0.074-0.074-0.074-0.145c0-0.145,0.289-0.145,0.578,0.07l0.215,0.074l0.289-0.145
	c0.144-0.145,0.215-0.215,0.289-0.289c0-0.07,0.145-0.215,0.285-0.359c0.578-0.434,0.504-1.296-0.07-1.367
	c-0.07,0-0.289,0-0.504-0.074C143.922,96.75,143.852,96.75,143.707,96.896 M141.402,95.383c-0.359,0.145-0.504,0.578-0.504,1.223
	c0,0.434,0.071,0.578,0.215,0.723l0.145,0.215l-0.145,0.145c-0.285,0.215-0.359,0.359-0.285,0.504c0.07,0.07,0.07,0.07,0,0.145h0.07
	c0.071,0,0.145,0.07,0.215,0.215c0.075,0.215,0.075,0.215,0.289,0.145h0.36c0.074,0,0.074,0-0.071-0.145
	c-0.074-0.145-0.074-0.215-0.074-0.289c0-0.215,0-0.215,0.145-0.141c0.144,0.07,0.144,0.07,0.218,0c0-0.074,0-0.145-0.074-0.219
	c-0.07,0-0.07,0,0-0.07c0.074-0.074,0.145-0.074,0.289-0.074c0.215,0,0.36-0.215,0.289-0.574c-0.074-0.359,0-0.504,0.145-0.504
	c0.141,0,0.141-0.578,0-0.648c-0.074-0.07-0.145-0.07-0.145,0c0,0-0.074,0.07-0.144,0.07c-0.074,0-0.074,0.074,0,0.145
	c0.07,0.219,0.07,0.219-0.145,0.145c-0.144,0-0.359-0.07-0.578-0.07c-0.285-0.074-0.359-0.145-0.215-0.219v-0.141
	c0-0.074,0-0.074,0.075-0.145c0.214,0,0.503-0.359,0.359-0.359c0,0-0.074,0,0-0.074C141.836,95.238,141.691,95.238,141.402,95.383
	 M138.309,94.809c-0.219,0.215-0.434,0.648-0.504,1.078c-0.219,0.938-0.219,0.938-0.434,1.009c-0.144,0-0.215,0-0.074,0.214
	c0.074,0.074,0.144,0.145,0.074,0.145c-0.074,0.074-0.504-0.43-0.504-0.648c0-0.07,0-0.285-0.074-0.359l-0.07-0.215v0.289
	c-0.071,0.285-0.215,0.43-0.36,0.359c-0.074,0-0.144,0-0.144,0.216c0,0.214,0,0.288,0.07,0.288h0.145
	c0.074-0.145,0.433,0,0.504,0.07c0.074,0.074,0.218,0.219,0.289,0.289c0.214,0.07,0.289,0.215,0.144,0.215
	c-0.144-0.07-0.289,0.504-0.215,0.648c0.071,0.145,0.071,0.145-0.144,0.359c-0.289,0.219-0.36,0.578-0.289,0.867
	c0.07,0.07,0.144,0.141,0.359,0.141s0.215,0,0.074-0.141c-0.144-0.074-0.218-0.289,0-0.434c0.071-0.07,0.071-0.07,0.215,0
	c0.07,0.071,0.215,0.145,0.215,0.071c0.074-0.071,0.144-0.071,0.289,0c0.289,0.218,0.504,0.073,0.719-0.431
	c0-0.215,0-0.289-0.071-0.359c-0.144-0.074-0.359-0.074-0.359,0c0,0.145-0.144,0.145-0.289,0c0-0.074-0.07-0.145-0.145-0.145
	c-0.144,0-0.289-0.215-0.289-0.434c0-0.07,0-0.07,0.145,0c0.144,0.145,0.289,0.145,0.359,0c0.075,0,0.075-0.07,0.075-0.07
	c-0.075,0-0.075-0.074,0-0.074c0.07-0.07,0.07-0.145,0-0.145c-0.075-0.07-0.075-0.141,0.214-0.141c0.145,0,0.289,0,0.289-0.074
	c0.071,0,0-0.07-0.144-0.07c-0.145,0-0.145,0,0.07-0.074h0.363c0.071,0.074,0.215,0.074,0.215,0c0,0,0.145-0.215,0.289-0.358
	c0.286-0.36,0.43-0.794,0.43-1.224c0-0.359,0-0.434-0.43-0.719C138.953,94.664,138.668,94.59,138.309,94.809 M136.867,92.863
	c-0.144,0.07-0.144,0.145-0.144,0.289c0,0.215,0.215,0.285,0.215,0.145c0-0.074,0.074-0.145,0.144-0.074
	c0.074,0.074,0.145,0.074,0.215,0c0.144,0,0.433,0.145,0.433,0.289c0,0.07-0.289,0.289-0.359,0.289c-0.074,0-0.215,0.07-0.359,0.215
	c-0.145,0.145-0.434,0.434-0.649,0.648c-0.578,0.43-0.793,0.863-0.718,1.297c0,0.285,0.285,0.645,0.359,0.504
	c0-0.074,0.07-0.074,0.144-0.074c0.141,0.074,0.215-0.145,0.071-0.215c-0.071-0.074-0.071-0.145,0.07-0.215
	c0.219-0.145,0.289-0.219,0.074-0.363c-0.144-0.07-0.215-0.07-0.289,0.145l-0.144,0.145v-0.215c0-0.289,0.433-0.648,1.082-0.938
	c0.504-0.145,0.574-0.214,0.429-0.285c-0.07,0-0.07-0.074-0.07-0.074c0.07,0,0.145-0.07,0.145-0.145c0-0.07,0-0.145,0.07-0.07
	c0,0,0.074,0.07,0.074,0.145c0,0.145,0.07,0.216,0.215,0.145c0,0,0.145-0.074,0.215,0c0.144,0,0.289-0.145,0.219-0.363
	c-0.145-0.215-0.075-0.215,0.07-0.215h0.359c0.145-0.07,0.36-0.07,0.793,0.07c0.36,0.074,0.649,0.145,0.649,0.219
	c0,0,0,0.145-0.075,0.289c-0.07,0.215-0.144,0.359-0.07,0.43c0.07,0.359,0.215,0.074,0.434-0.574
	c0.14-0.363,0.215-0.648,0.215-0.723c0.144-0.07,0.07,0,0,0.289c-0.145,0.434-0.075,0.649,0.285,0.719
	c0.289,0.074,0.289,0.074,0.578-0.141c0.144-0.219,0.289-0.289,0.289-0.289c0.215,0,0.285,0,0.285-0.074
	c0-0.145,0.219-0.215,0.289-0.145c0.074,0.074,0.145,0.074,0.219,0c0-0.07,0.07-0.07,0.141,0c0.074,0,0.144,0.074,0.218,0.074
	c0.285,0.07,0.215,0.289,0,0.574c-0.144,0.074-0.218,0.219-0.144,0.289c0,0,0,0.074-0.074,0.145c-0.071,0.145,0,0.434,0.144,0.434
	c0,0,0.074-0.074,0.074-0.145c0.071-0.074,0.285-0.145,0.504-0.219c0.36-0.07,0.36-0.07,0.285,0.074
	c-0.07,0.145-0.07,0.215,0.075,0.359c0.144,0.215,0.793,0.215,0.863,0.07c0.07-0.07,0.574,0,0.793,0.145
	c0.144,0.074,0.285,0.145,0.359,0.219c0.145,0,0.215,0.07,0.145,0.07c-0.074,0.07-0.145,0.648-0.074,0.719
	c0.074,0.074,0.074,0,0.218-0.145l0.071-0.215l0.289,0.289c0.214,0.289,0.648,0.793,0.648,0.934c0,0-0.074,0.074-0.144,0.145
	c0,0.074-0.075,0.074-0.215-0.145c-0.145-0.215-0.289-0.215-0.434-0.141c-0.144,0-0.144,0-0.074,0.141
	c0,0.074,0.074,0.074,0.144,0.074l0.075,0.07c0,0.074,0.144,0.219,0.289,0.363c0.285,0.285,0.359,0.359,0.215,0.43v0.215
	c0.144,0.145-0.215-0.07-0.29-0.285c-0.144-0.145-0.144-0.145-0.289,0c-0.144,0.215-0.07,0.285,0.289,0.504
	c0.29,0.145,0.36,0.215,0.29,0.215c-0.075,0.071,0,0.071,0.07,0.215c0.219,0.145,0.219,0.289,0.074,0.359
	c-0.434,0.145-0.504,0.145-0.434,0.219c0.075,0.07,0.075,0.07,0,0.07c-0.214,0.074-0.359,0.434-0.359,0.648
	c0,0.145,0.07,0.215,0.215,0.289l0.144,0.146l-0.214,0.284c-0.075,0.145-0.219,0.289-0.219,0.434c-0.07,0.07-0.07,0.07-0.285,0.07
	c-0.145,0-0.145,0-0.145-0.07c0.071-0.145,0-0.145-0.144-0.145c-0.215,0-0.289,0-0.289,0.215c-0.071,0.289,0,0.723,0.218,0.867
	c0.071,0.07,0.071,0.07,0.215,0c0.289-0.219,0.649-0.145,0.863,0c0.075,0.07,0.215,0.141,0.29,0.141c0.144,0,0.144,0,0,0.219
	c-0.145,0.145-0.145,0.215,0,0.145c0.07-0.074,0.144,0,0.144,0.145v0.141l0.145-0.141c0-0.145,0.07-0.363,0.07-0.434
	c0-0.215-0.215-0.719-0.289-0.719c-0.07,0-0.145-0.363-0.07-0.648c0-0.145,0.07-0.219,0.144-0.219c0,0.074,0.07,0.219,0,0.504
	c0,0.363,0,0.363,0.145,0.289c0.14-0.07,0.214-0.43,0.14-0.719v-0.289l0.145,0.145c0.074,0.145,0.218,0.289,0.289,0.359
	c0.144,0.215,0.144,0.215,0.144,0.074c0-0.074-0.074-0.289-0.144-0.504l-0.215-0.363l0.215,0.074h0.937
	c0.649,0.07,0.789,0.07,0.934,0c0.215-0.145,0.215-0.434,0.074-0.359c-0.219,0.07-1.297,0.07-1.512,0.07
	c-0.144-0.07-0.144-0.07,0.071-0.145c0.144,0,0.359-0.145,0.433-0.215l0.141-0.145l-0.141-0.289l-0.144-0.215v0.215
	c0,0.289-0.074,0.363-0.504,0.363c-0.289,0-0.289,0-0.289-0.145c0.07-0.074,0.07-0.363,0.07-0.723
	c0.074-0.359,0.074-0.574,0.074-0.574c0.071,0,0.43,0.145,0.793,0.289c0.575,0.215,0.864,0.285,1.149,0.285
	c0.433,0.074,0.508,0.074,0.722-0.144c0.071-0.071,0.215-0.286,0.289-0.505l0.141-0.285h0.434c0.433,0,0.504-0.074,0.359-0.219
	c-0.144-0.141-0.144-0.141-0.215,0c0,0-0.144,0.074-0.215,0c-0.289-0.07-0.433-0.07-0.648,0.363
	c-0.359,0.504-0.504,0.646-0.867,0.646c-0.141-0.071-0.645-0.216-1.149-0.431l-0.793-0.359l-0.074-0.359
	c-0.07-0.508-0.43-1.371-0.644-1.586c-0.145-0.145-0.145-0.215-0.075-0.289c0.075,0,0.075-0.07-0.07-0.145
	c-0.144-0.07-0.219-0.141-0.793-0.789c-0.215-0.145-0.433-0.289-0.504-0.359c-0.215,0-0.578-0.363-0.578-0.504
	c0-0.074,0.723-0.434,1.297-0.648c0.219-0.145,0.359-0.219,0.359-0.219c-0.07-0.07-0.789,0.145-1.293,0.359l-0.504,0.219
	l-0.503-0.145c-0.29-0.145-0.649-0.215-0.793-0.359c-0.579-0.359-0.793-0.434-1.153-0.359c-0.215,0-0.433,0-0.793-0.145
	c-0.215-0.074-0.504-0.145-0.574-0.145c-0.074,0-0.144,0-0.144-0.074c0-0.07-1.227,0-2.235,0.289l-0.933,0.215l-0.215-0.141
	C137.441,92.934,137.082,92.793,136.867,92.863 M132.188,91.566c-0.075,0.074-0.075,0.289,0.07,0.289
	c0.074,0.07,0.289-0.289,0.219-0.359C132.402,91.422,132.258,91.422,132.188,91.566 M141.258,90.055
	c-0.863,0.145-2.375,0.719-2.375,0.863c0,0.074,0.359,0.793,0.433,0.793c0,0,0.286-0.07,0.504-0.215
	c1.942-0.723,3.887-0.723,5.758,0.07c1.367,0.579,2.52,1.586,3.313,2.883c0.144,0.215,0.289,0.43,0.289,0.43
	c0,0.074,0.215,0,0.429-0.145l0.434-0.214l-0.289-0.579c-1.297-2.016-3.383-3.453-5.832-3.887
	C143.203,89.984,141.98,89.984,141.258,90.055 M141.617,88.398c-2.375,0.215-4.824,1.441-6.336,3.168
	c-1.438,1.656-2.23,3.672-2.375,5.762l-0.07,0.719h1.078l0.074-0.289c0-0.285,0.071-0.574,0.071-0.789
	c0.07-1.008,0.574-2.448,1.082-3.312c1.511-2.449,4.031-3.961,6.839-4.176h0.649v-1.152h-0.434
	C141.98,88.328,141.691,88.328,141.617,88.398"/>
<path d="M171.594,103.879c0.504,0.504,0.144,1.441-0.578,1.441c-0.36,0-0.864-0.434-0.864-0.793
	C170.152,103.879,171.16,103.449,171.594,103.879 M171.594,100.281c0.504,0.504,0.144,1.438-0.578,1.438
	c-0.36,0-0.864-0.43-0.864-0.793C170.152,100.281,171.16,99.848,171.594,100.281 M158.777,94.879c0.215,0.215,0.36,0.504,0.36,0.648
	c0,0.359-0.575,0.938-0.934,0.938c-0.433,0-0.937-0.504-0.937-0.867c0-0.504,0.504-1.008,0.863-1.008
	C158.344,94.59,158.633,94.734,158.777,94.879 M158.203,92.215c-0.648,0.215-1.656,1.082-2.09,1.945
	c-0.359,0.648-0.433,0.648-1.511,1.078c-0.649,0.219-1.368,0.504-1.586,0.578l-0.36,0.145l1.227,0.935l1.293,0.937l0.074,1.438
	c0.145,2.233,0.719,4.319,1.801,5.905c1.222,1.871,2.445,2.664,4.39,2.734c3.024,0.145,5.688-1.438,6.481-3.957
	c0.07-0.433,0.215-0.578,0.43-0.578c0.503,0,0.793,0.359,1.226,1.297c0.289,0.648,0.504,0.938,0.934,1.152
	c0.648,0.289,1.297,0.071,1.73-0.504c0.36-0.723,0.215-1.512-0.433-2.09c-0.145-0.145-0.289-0.359-0.289-0.504
	s0.144-0.359,0.289-0.504c0.359-0.359,0.648-0.934,0.648-1.367c0-0.504-0.434-1.152-1.008-1.297
	c-0.793-0.215-1.367,0.145-1.871,1.227c-0.793,1.582-1.152,1.652-1.367,0.285c-0.363-1.941-1.371-3.887-3.098-5.688
	c-1.586-1.656-3.238-2.734-4.894-3.094C159.211,92.07,158.992,92.07,158.203,92.215 M164.539,91.062l-0.144,0.145
	c-0.075,0-0.145,0-0.145-0.07c0-0.074,0.07-0.145,0.145-0.145C164.465,90.992,164.539,90.992,164.539,91.062 M163.816,90.848
	c0,0.07-0.07,0.289-0.214,0.504c-0.504,0.648-0.215,1.582,0.503,1.582c0.649,0,1.079-1.582,0.649-1.941
	C164.465,90.773,163.816,90.703,163.816,90.848 M162.234,89.766c0,0.074-0.074,0.074-0.144,0.074c-0.074,0-0.145,0-0.145-0.074
	c0-0.141,0.071-0.141,0.145-0.141C162.16,89.625,162.234,89.625,162.234,89.766 M161.656,89.406
	c-0.285,0.074-0.359,0.145-0.215,0.289c0.071,0.145,0.071,0.359,0,0.434c-0.07,0.142-0.144,0.43-0.144,0.719
	c0,0.434,0.074,0.574,0.359,0.793c0.434,0.359,0.723,0.359,1.153,0c0.359-0.289,0.359-0.359,0.359-0.938
	c-0.07-0.504-0.215-0.793-0.43-1.078C162.449,89.336,162.379,89.336,161.656,89.406 M158.848,88.688
	c0,0.145-0.071,0.215-0.215,0.215c-0.071,0-0.145-0.07-0.145-0.215c0-0.07,0.074-0.215,0.145-0.215
	C158.777,88.473,158.848,88.617,158.848,88.688 M158.203,88.398c-0.144,0.219-0.363,0.359-0.504,0.359
	c-0.219,0-0.219,0.074,0.071,0.289c0.144,0.145,0.289,0.434,0.289,0.578c0,1.367,1.222,2.23,2.23,1.582
	c0.719-0.504,0.649-1.582-0.07-2.375C159.496,88.039,158.707,87.824,158.203,88.398"/>
<path d="M174.809,103.629c0.074,0.074,4.968,3.961,5.691,4.535c0.07,0.074,0.07-0.359,0.07-2.301v-2.379h-2.953
	C174.738,103.484,174.668,103.484,174.809,103.629 M189.859,98.445h-2.953v4.825c0.07,0,5.977-4.825,5.977-4.825H189.859
	 M190.219,95.637c-1.512,1.227-2.809,2.305-2.953,2.449l-0.359,0.215h5.977v-3.816c0.07-0.574,0.07-1.008,0-1.008
	C192.809,93.477,191.656,94.484,190.219,95.637 M186.906,93.262v4.824l2.879-2.375c1.586-1.227,2.953-2.379,3.023-2.379
	c0.074-0.141-0.359-0.141-2.879-0.141C187.625,93.191,186.977,93.191,186.906,93.262 M186.906,90.527v2.52h2.953
	c1.727,0,3.023,0,2.949-0.074c-0.07-0.07-5.613-4.68-5.758-4.824C186.906,88.078,186.906,88.223,186.906,90.527 M180.93,88.148
	c0,0,1.297,1.082,2.808,2.305c1.441,1.223,2.734,2.305,2.879,2.449l0.145,0.145v-4.969h-2.953
	C182.152,88.078,180.859,88.078,180.93,88.148 M177.617,90.527l-3.023,2.52l-0.071,2.59c-0.074,3.457-0.074,7.634,0,7.634h6.118
	l6.05-0.071l-3.023-2.449l-3.098-2.449v-5.109c0.071-2.809,0.071-5.113,0.071-5.113C180.57,88.078,179.273,89.156,177.617,90.527"/>
<path d="M205.176,105.164c-0.141,0-0.141,0.07-0.285,0.793l-0.145,0.574l0.359,0.215c0.863,0.867,2.016,1.297,3.383,1.297
	c1.441,0,2.664-0.504,3.602-1.367c0.359-0.215,0.359-0.215,0.07-0.145c-0.141,0.074-0.43,0.215-0.574,0.434
	c-0.145,0.07-0.578,0.145-1.008,0.215c-1.586,0.434-3.383-0.145-4.39-1.582C205.898,105.094,205.68,105.021,205.176,105.164
	 M201.938,105.523c-0.72,1.082-2.017,1.801-3.384,1.801c-0.793,0-1.801-0.289-2.305-0.719c-0.145-0.074-0.359-0.145-0.504-0.145
	c0,0,0.359,0.215,0.863,0.574c1.871,1.152,4.105,1.367,6.121,0l0.648-0.43l-0.145-0.648c-0.074-0.359-0.074-0.723-0.074-0.723
	s-0.215-0.07-0.504-0.07C202.227,105.094,202.227,105.094,201.938,105.523 M204.531,99.262c0.43,0.43,0.07,1.148-0.504,1.148
	c-0.289,0-0.648-0.43-0.648-0.719c0-0.07,0.07-0.215,0.145-0.43C203.883,98.973,204.242,98.973,204.531,99.262 M208.273,98.539
	l-0.504,0.434v0.719c-0.07,1.586-0.719,2.738-2.23,3.672c-0.145,0.145-0.504,1.367-0.504,1.512h0.504
	c0.574-0.215,0.649-0.215,1.078,0.219c0.359,0.43,0.504,0.43,0.938,0.07l0.145-0.144l-0.145-0.431
	c-0.289-0.508-0.289-0.578,0.359-1.227l0.289-0.289l0.504,0.074c0.648,0.215,0.648,0.215,0.789-0.215l0.363-0.363l-0.504-0.359
	l-0.434-0.43l0.07-0.504c0.219-0.578,0.363-0.648,1.008-0.793h0.363V99.98c0-0.504,0-0.504-0.434-0.504
	c-0.504-0.074-0.719-0.359-0.793-0.938c-0.145-0.289-0.145-0.359-0.215-0.359C208.922,98.18,208.633,98.324,208.273,98.539
	 M198.914,98.324c-0.289,0.863-0.359,0.938-0.648,1.078c-0.719,0.074-0.719,0.219-0.719,0.578c0,0.504,0.145,0.648,0.719,0.648
	c0.359,0,0.504,0.145,0.719,0.934l0.074,0.504l-0.434,0.363l-0.359,0.285l0.289,0.434c0.359,0.43,0.359,0.43,0.719,0.215
	c0.434-0.215,0.648-0.215,1.152,0.289c0.359,0.43,0.359,0.504,0.215,1.441c-0.07,0.141,0,0.141,0.359,0.43l0.289,0.145l0.359-0.504
	l0.434-0.434l0.504,0.145l0.434,0.146v-0.431c-0.074-0.363-0.074-0.578-0.074-0.723c0-0.215-0.07-0.289-0.574-0.504
	c-0.867-0.574-1.586-1.152-1.875-1.941c-0.359-0.648-0.359-0.793-0.359-1.656l-0.07-0.867l-0.359-0.43
	C198.984,97.82,199.059,97.82,198.914,98.324 M210,97.242c-0.863,0.723-0.863,0.578-0.789,1.008
	c0.145,0.289,0.215,0.289,0.863,0.434c1.008,0.215,1.656,0.504,2.449,1.082c0.863,0.863,1.223,1.797,1.367,3.023l0.07,0.789v-1.008
	c0-0.645,0-1.367-0.07-1.656c-0.359-1.438-1.441-2.879-2.809-3.598C210.434,96.957,210.363,96.957,210,97.242 M197.258,97.172
	c-1.297,0.574-2.52,1.945-2.809,3.238c-0.289,0.723-0.43,2.16-0.289,2.664c0,0.434,0.074,0.289,0.074-0.504
	c0.215-1.148,0.504-1.941,1.367-2.805c0.648-0.578,1.367-1.008,2.305-1.082c0.648-0.145,0.648-0.215,0.863-0.648
	c0.145-0.289,0.145-0.289-0.359-0.719c-0.359-0.145-0.504-0.359-0.648-0.359C197.762,96.957,197.473,97.027,197.258,97.172
	 M211.008,95.301c-0.504,0.215-2.23,0.934-3.742,1.512l-2.734,1.152l-0.145-0.434c-0.289-0.359-0.434-0.359-0.648,0.215
	l-0.074,0.219l-2.949-1.152c-1.586-0.719-3.242-1.367-3.602-1.512c-0.434-0.219-0.719-0.289-0.719-0.289
	c-0.145,0,1.512,0.938,3.238,2.016c2.09,1.152,3.387,1.945,3.312,2.09c0,0-1.297-0.648-3.023-1.801
	c-4.031-2.305-4.031-2.305-3.816-2.234c0,0.145,0.793,0.723,1.656,1.441c0.793,0.648,2.305,1.727,3.023,2.449l1.586,1.223
	l-0.219,0.289c-0.07,0.215-0.214,0.43-0.214,0.43s0.214,0.074,0.503,0.074c0.215,0,0.434,0,0.434,0.145c0,0,0.145,1.297,0.359,2.879
	c0.215,1.586,0.504,3.312,0.648,3.961c0.07,1.008,0.07,0.934,0.07-2.952c0-2.954,0.074-4.032,0.074-4.032
	c0.07,0,0.07,1.152,0.07,4.105c0,4.605,0,4.605,0.793-0.578c0.145-1.801,0.285-3.238,0.504-3.312c0-0.215,0.07-0.215,0.504-0.215
	h0.29l-0.146-0.359l-0.145-0.434l0.215-0.289c0.145-0.141,1.512-1.148,2.809-2.16c1.297-1.008,2.59-2.016,2.809-2.301
	c0.289-0.219,0.43-0.363,0.43-0.363s-0.574,0.363-1.222,0.723c-2.45,1.512-5.544,3.383-5.763,3.383c-0.215,0,0.363-0.43,3.312-2.16
	c3.023-1.727,3.672-2.23,3.531-2.086C212.02,94.941,211.586,95.082,211.008,95.301 M203.523,93.646
	c-0.074,0.214-0.145,0.503-0.145,0.647c-0.145,0-0.434,0.07-0.723,0.215l-0.574,0.215l-0.434-0.574l-0.43-0.359l-0.434,0.215
	c-0.145,0.145-0.215,0.289-0.215,0.359c0.215,0.938,0.215,0.863-0.074,1.367l-0.43,0.363l0.648,0.215l0.789,0.289l0.648-0.363
	c0.723-0.285,0.793-0.43,1.586-0.43c1.008-0.074,1.727,0.145,2.375,0.648c0.359,0.285,0.434,0.285,0.863,0.145
	c0.145-0.074,0.578-0.145,0.648-0.289l0.289-0.074l-0.289-0.43l-0.43-0.504l0.215-0.504c0.145-0.219,0.145-0.504,0.145-0.504
	s-0.289-0.145-0.434-0.219l-0.359-0.215l-0.289,0.434l-0.43,0.43l-0.578-0.215l-0.719-0.215l-0.145-0.647l-0.07-0.505h-1.008V93.646
	 M201.289,89.539c-1.223,0.723-2.23,2.09-2.52,3.527c-0.215,0.723-0.215,2.449-0.145,2.523c0.145,0.141,0.434,0.215,0.648,0.359
	l0.434,0.071l0.359-0.29l0.359-0.285l-0.359-0.648c-0.145-0.648-0.145-0.793-0.145-1.656c0-1.586,0.648-2.953,2.16-3.891l0.07-0.07
	C202.082,89.18,201.723,89.25,201.289,89.539 M205.68,89.109c0,0,0.289,0.141,0.434,0.286c0.359,0.144,0.648,0.362,1.008,0.722
	c1.152,1.367,1.512,3.238,0.793,4.895l-0.289,0.504l0.578,0.578l0.574-0.145c0.793-0.219,0.793-0.359,0.793-1.441
	c0-0.862-0.145-1.727-0.578-2.52c-0.359-0.938-1.582-2.23-2.445-2.593C205.898,89.109,205.68,89.035,205.68,89.109"/>
<path d="M321.531,40.734l-0.211-0.984l1.844-0.402c0.129-0.024,0.215,0.011,0.238,0.113l0.145,0.699
	c0.02,0.102-0.051,0.156-0.168,0.195L321.531,40.734z M321.176,42.773l0.75-0.16l-0.309-1.445l1.051-0.223l1.383,1.215l0.82-0.172
	l-1.383-1.222l0.129-0.024c0.504-0.105,0.758-0.367,0.672-0.762l-0.137-0.656c-0.09-0.394-0.434-0.539-0.922-0.426l-2.746,0.586
	L321.176,42.773z M317.188,43.621l3.34-0.711l-0.086-0.426l-2.598,0.555l-0.254-1.203l2.348-0.496l-0.094-0.426l-2.348,0.5
	l-0.164-0.824l2.586-0.551l-0.086-0.426l-3.344,0.719L317.188,43.621z M313.344,44.437l3.348-0.714l-0.094-0.418l-2.594,0.547
	l-0.617-2.872l-0.75,0.165L313.344,44.437z M309.5,45.258l3.348-0.715l-0.094-0.422l-2.594,0.555l-0.605-2.875l-0.746,0.16
	L309.5,45.258z M306.062,44.574l0.383-1.433l0.93,1.16L306.062,44.574z M304.934,46.23l0.75-0.16l0.258-1.023l1.734-0.367
	l0.648,0.828l0.75-0.156l-2.34-2.946l-0.852,0.18L304.934,46.23z M301.141,46.41c0.086,0.387,0.422,0.531,0.926,0.426l2.543-0.543
	l-0.086-0.422l-2.398,0.508c-0.121,0.031-0.207-0.012-0.23-0.106l-0.453-2.148c-0.02-0.098,0.043-0.164,0.164-0.184l2.391-0.519
	l-0.094-0.426l-2.539,0.539c-0.496,0.117-0.758,0.375-0.672,0.777L301.141,46.41z M295.227,48.289l0.75-0.16l-0.344-1.617
	l2.043-0.442l0.348,1.621l0.746-0.152l-0.703-3.297l-0.742,0.16l0.258,1.243l-2.043,0.441l-0.262-1.246l-0.754,0.152L295.227,48.289
	z M290.988,49.187l2.742-0.582c0.496-0.109,0.758-0.367,0.676-0.769l-0.188-0.852c-0.086-0.386-0.422-0.531-0.926-0.418
	l-1.793,0.375c-0.133,0.032-0.211-0.007-0.238-0.101l-0.109-0.531c-0.02-0.102,0.043-0.164,0.172-0.188l2.34-0.504l-0.094-0.426
	l-2.48,0.536c-0.504,0.105-0.766,0.375-0.68,0.769l0.102,0.477c0.086,0.402,0.426,0.531,0.922,0.429l1.801-0.386
	c0.121-0.024,0.207,0.011,0.23,0.113l0.195,0.894c0.02,0.098-0.043,0.164-0.168,0.188l-2.598,0.559L290.988,49.187z M289.539,49.5
	l0.75-0.16l-0.699-3.289l-0.754,0.148L289.539,49.5z M285.645,50.324l0.75-0.156l-0.348-1.621l2.348-0.504l-0.094-0.426
	l-2.348,0.504l-0.164-0.82l2.586-0.555l-0.086-0.43l-3.344,0.719L285.645,50.324z"/>
<path d="M316.645,49.969l-0.297-1.395c-0.016-0.074,0.02-0.137,0.152-0.16l1.223-0.258l0.348,1.649l-1.227,0.257
	C316.723,50.086,316.656,50.043,316.645,49.969z M315.938,50.07c0.078,0.375,0.387,0.489,0.863,0.391l2.047-0.441l-0.699-3.282
	l-0.707,0.145l0.203,0.898l-1.355,0.281c-0.473,0.102-0.711,0.336-0.633,0.711L315.938,50.07z M314.109,48.113l0.695-0.152
	l-0.105-0.496L314,47.609L314.109,48.113z M314.707,50.906l0.699-0.144l-0.512-2.399l-0.707,0.145L314.707,50.906z M313.352,51.195
	l0.707-0.152l-0.707-3.297l-0.691,0.149L313.352,51.195z M310.508,51.281l-0.301-1.398c-0.016-0.078,0.027-0.137,0.148-0.164
	l1.055-0.223c0.121-0.031,0.184,0.012,0.191,0.086l0.305,1.395c0.012,0.082-0.031,0.136-0.152,0.168l-1.043,0.214
	C310.582,51.395,310.523,51.352,310.508,51.281z M309.789,51.375c0.086,0.375,0.395,0.496,0.871,0.395l1.297-0.282
	c0.473-0.101,0.719-0.332,0.641-0.707l-0.281-1.293c-0.082-0.375-0.398-0.496-0.871-0.398l-1.289,0.281
	c-0.477,0.102-0.715,0.332-0.633,0.707L309.789,51.375z M306.52,52.641l2.043-0.43c0.477-0.102,0.715-0.332,0.637-0.707
	l-0.086-0.402c-0.082-0.375-0.391-0.493-0.867-0.383l-1.172,0.246c-0.121,0.027-0.18-0.016-0.203-0.086l-0.055-0.277
	c-0.016-0.079,0.02-0.137,0.141-0.165l1.73-0.367l-0.086-0.375l-1.836,0.399c-0.477,0.097-0.723,0.328-0.641,0.703l0.035,0.172
	c0.078,0.375,0.387,0.492,0.871,0.39l1.172-0.246c0.125-0.019,0.188,0.008,0.195,0.094l0.117,0.492
	c0.012,0.071-0.031,0.137-0.152,0.164l-1.922,0.403L306.52,52.641z M303.508,51.719l-0.086-0.403
	c-0.012-0.07,0.023-0.121,0.145-0.16l1.051-0.222c0.125-0.02,0.188,0.015,0.203,0.093l0.086,0.399L303.508,51.719z M303.012,52.82
	c0.082,0.375,0.391,0.485,0.859,0.391l1.949-0.418l-0.078-0.375l-1.82,0.391c-0.125,0.019-0.188-0.016-0.211-0.09l-0.121-0.625
	l2.094-0.438l-0.156-0.73c-0.082-0.371-0.391-0.489-0.867-0.387l-1.293,0.273c-0.477,0.11-0.715,0.34-0.637,0.711L303.012,52.82z
	 M300.977,53.828l0.695-0.156l-0.402-1.895c-0.008-0.07,0.031-0.136,0.152-0.16l0.777-0.164l-0.078-0.375l-0.906,0.188
	c-0.469,0.101-0.707,0.332-0.629,0.707L300.977,53.828z M298.125,53.902l-0.102-0.5c-0.016-0.07,0.02-0.129,0.152-0.156l1.215-0.258
	l0.16,0.746l-1.227,0.262C298.203,54.023,298.145,53.98,298.125,53.902z M297.418,54.008c0.078,0.375,0.391,0.492,0.863,0.39
	l2.047-0.433l-0.391-1.848c-0.078-0.375-0.387-0.492-0.863-0.39l-1.852,0.39l0.082,0.371l1.727-0.367
	c0.121-0.019,0.18,0.016,0.195,0.094l0.086,0.398l-1.355,0.285c-0.465,0.102-0.703,0.332-0.625,0.707L297.418,54.008z
	 M294.027,54.73c0.078,0.372,0.391,0.489,0.863,0.387l2.047-0.437l-0.504-2.391l-0.699,0.145l0.426,2.023l-1.227,0.266
	c-0.121,0.019-0.188-0.016-0.199-0.094l-0.398-1.895l-0.703,0.145L294.027,54.73z M291.293,55.363l-0.297-1.398
	c-0.016-0.078,0.023-0.137,0.145-0.164l1.223-0.258l0.355,1.648l-1.227,0.258C291.371,55.469,291.305,55.434,291.293,55.363z
	 M290.586,55.457c0.078,0.375,0.391,0.488,0.855,0.387l1.355-0.282l0.223,1.055l0.699-0.16l-0.734-3.434l-2.047,0.43
	c-0.473,0.102-0.711,0.332-0.633,0.707L290.586,55.457z M287.301,56.73l2.047-0.433c0.477-0.098,0.711-0.336,0.633-0.711
	l-0.086-0.395c-0.078-0.375-0.387-0.492-0.855-0.39l-1.176,0.246c-0.129,0.027-0.188-0.016-0.207-0.086l-0.059-0.274
	c-0.016-0.074,0.023-0.136,0.152-0.167l1.719-0.36l-0.078-0.375l-1.852,0.391c-0.473,0.097-0.703,0.336-0.625,0.711l0.027,0.172
	c0.082,0.375,0.398,0.492,0.871,0.39l1.176-0.254c0.121-0.019,0.188,0.016,0.199,0.086l0.109,0.508
	c0.016,0.07-0.027,0.137-0.152,0.156l-1.922,0.41L287.301,56.73z"/>
<path d="M270.184,90.535h0.809v-0.461l0.516-0.516l0.98,0.977h0.922l-1.441-1.438l1.328-1.324h-0.922l-1.383,1.379v-2.418h-0.809
	V90.535z M267.707,90.535h0.809v-2.188c0-0.086,0.055-0.145,0.199-0.145h0.895v-0.43h-1.039c-0.547,0-0.863,0.199-0.863,0.633
	V90.535z M264.539,89.961v-0.578c0-0.086,0.059-0.141,0.203-0.141h1.41v0.863h-1.41C264.598,90.105,264.539,90.047,264.539,89.961z
	 M263.734,89.902c0,0.434,0.316,0.633,0.863,0.633h2.363v-2.129c0-0.434-0.32-0.633-0.867-0.633h-2.129v0.43h1.988
	c0.141,0,0.199,0.059,0.199,0.145v0.461h-1.555c-0.547,0-0.863,0.203-0.863,0.633V89.902z M259.816,90.535h0.809v-2.332h1.41
	c0.145,0,0.199,0.059,0.199,0.145v2.188h0.809v-2.129c0-0.434-0.316-0.633-0.863-0.633h-1.555v-1.039h-0.809V90.535z
	 M254.977,90.535h3.168c0.578,0,0.922-0.23,0.922-0.691v-0.977c0-0.461-0.344-0.691-0.922-0.691h-2.07
	c-0.145,0-0.23-0.059-0.23-0.172v-0.605c0-0.117,0.086-0.176,0.23-0.176h2.707v-0.488h-2.883c-0.574,0-0.922,0.23-0.922,0.691v0.547
	c0,0.461,0.348,0.691,0.922,0.691h2.074c0.145,0,0.23,0.059,0.23,0.172v1.039c0,0.113-0.086,0.172-0.23,0.172h-2.996V90.535z
	 M249.793,90.105v-1.902h1.414c0.145,0,0.199,0.059,0.199,0.145v1.613c0,0.086-0.055,0.145-0.199,0.145H249.793z M248.988,91.746
	h0.805v-1.211h1.559c0.547,0,0.863-0.199,0.863-0.633v-1.496c0-0.434-0.316-0.633-0.863-0.633h-2.363V91.746z M247.434,87.312h0.805
	v-0.578h-0.805V87.312z M247.434,90.535h0.805v-2.762h-0.805V90.535z M242.363,87.223h1.844v3.312h0.863v-3.312h1.844v-0.488h-4.551
	V87.223z M236.949,90.535h0.809v-0.461l0.516-0.516l0.98,0.977h0.922l-1.441-1.438l1.324-1.324h-0.922l-1.379,1.379v-2.418h-0.809
	V90.535z M233.32,89.902c0,0.434,0.316,0.633,0.863,0.633h2.133v-0.43h-1.988c-0.145,0-0.199-0.059-0.199-0.145v-1.613
	c0-0.086,0.055-0.145,0.199-0.145h1.988v-0.43h-2.133c-0.547,0-0.863,0.199-0.863,0.633V89.902z M230.152,89.961v-0.578
	c0-0.086,0.059-0.141,0.203-0.141h1.41v0.863h-1.41C230.211,90.105,230.152,90.047,230.152,89.961z M229.348,89.902
	c0,0.434,0.316,0.633,0.863,0.633h2.359v-2.129c0-0.434-0.316-0.633-0.863-0.633h-2.129v0.43h1.983c0.146,0,0.204,0.059,0.204,0.145
	v0.461h-1.555c-0.547,0-0.863,0.203-0.863,0.633V89.902z M227.848,90.535h0.809v-3.801h-0.809V90.535z M223.875,88.176v-0.953h2.074
	c0.145,0,0.23,0.059,0.23,0.176v0.605c0,0.113-0.086,0.172-0.23,0.172H223.875z M223.875,90.047v-1.383h2.129
	c0.145,0,0.23,0.059,0.23,0.172v1.039c0,0.113-0.086,0.172-0.23,0.172H223.875z M223.012,90.535h3.168
	c0.574,0,0.922-0.23,0.922-0.691v-0.832c0-0.348-0.262-0.551-0.492-0.605c0.23-0.086,0.434-0.261,0.434-0.605v-0.375
	c0-0.461-0.348-0.691-0.922-0.691h-3.109V90.535z"/>
<path d="M294.16,84.984h2.363c0.547,0,0.863-0.203,0.863-0.633v-0.461c0-0.434-0.316-0.637-0.863-0.637h-1.355
	c-0.145,0-0.199-0.055-0.199-0.141v-0.32c0-0.086,0.055-0.141,0.199-0.141h1.988v-0.434h-2.133c-0.547,0-0.863,0.203-0.863,0.633
	v0.203c0,0.43,0.316,0.633,0.863,0.633h1.355c0.145,0,0.203,0.059,0.203,0.145v0.574c0,0.086-0.059,0.145-0.203,0.145h-2.219V84.984
	z M290.242,84.352c0,0.43,0.32,0.633,0.867,0.633h2.359v-2.766h-0.805v2.332h-1.41c-0.145,0-0.203-0.059-0.203-0.145v-2.188h-0.809
	V84.352z M287.711,84.352c0,0.43,0.316,0.633,0.863,0.633h1.035v-0.434h-0.891c-0.145,0-0.203-0.059-0.203-0.145v-1.754h1.094
	v-0.434h-1.094v-1.035h-0.805V84.352z M284.543,84.406v-0.574c0-0.086,0.055-0.145,0.199-0.145h1.414v0.863h-1.414
	C284.598,84.551,284.543,84.492,284.543,84.406z M283.734,84.352c0,0.43,0.316,0.633,0.863,0.633h2.363v-2.133
	c0-0.43-0.316-0.633-0.863-0.633h-2.133v0.434h1.988c0.145,0,0.203,0.055,0.203,0.141v0.461h-1.559
	c-0.547,0-0.863,0.203-0.863,0.637V84.352z M280.625,84.551v-1.898h1.41c0.145,0,0.203,0.055,0.203,0.141v1.613
	c0,0.086-0.059,0.145-0.203,0.145H280.625z M279.82,84.984h2.359c0.547,0,0.863-0.203,0.863-0.633v-1.5
	c0-0.43-0.316-0.633-0.863-0.633h-1.555v-1.035h-0.805V84.984z M274.348,84.984h0.805v-2.332h0.949c0.145,0,0.203,0.055,0.203,0.141
	v2.191h0.805v-2.332h0.953c0.145,0,0.199,0.055,0.199,0.141v2.191h0.809v-2.133c0-0.43-0.316-0.633-0.863-0.633h-3.859V84.984z
	 M272.793,81.758h0.805v-0.574h-0.805V81.758z M272.793,84.984h0.805v-2.766h-0.805V84.984z M271.234,84.984h0.809v-3.801h-0.809
	V84.984z M265.305,84.984h2.359c0.547,0,0.863-0.203,0.863-0.633v-0.461c0-0.434-0.316-0.637-0.863-0.637h-1.352
	c-0.145,0-0.203-0.055-0.203-0.141v-0.32c0-0.086,0.059-0.141,0.203-0.141h1.984v-0.434h-2.129c-0.547,0-0.863,0.203-0.863,0.633
	v0.203c0,0.43,0.316,0.633,0.863,0.633h1.352c0.145,0,0.203,0.059,0.203,0.145v0.574c0,0.086-0.059,0.145-0.203,0.145h-2.215V84.984
	z M261.387,84.352c0,0.43,0.316,0.633,0.863,0.633h2.363v-2.766h-0.809v2.332h-1.41c-0.145,0-0.203-0.059-0.203-0.145v-2.188h-0.805
	V84.352z M257.41,84.984h0.809v-2.332h1.41c0.145,0,0.203,0.055,0.203,0.141v2.191h0.805v-2.133c0-0.43-0.316-0.633-0.863-0.633
	h-2.363V84.984z M255.855,81.758h0.809v-0.574h-0.809V81.758z M255.855,84.984h0.809v-2.766h-0.809V84.984z M251.883,84.984h0.806
	v-2.332h1.413c0.141,0,0.199,0.055,0.199,0.141v2.191h0.809v-2.133c0-0.43-0.316-0.633-0.867-0.633h-1.554v-1.035h-0.806V84.984z
	 M249.406,84.984h0.805v-2.191c0-0.086,0.059-0.141,0.203-0.141h0.891v-0.434h-1.035c-0.547,0-0.863,0.203-0.863,0.633V84.984z
	 M246.238,84.406v-0.574c0-0.086,0.059-0.145,0.2-0.145h1.413v0.863h-1.413C246.297,84.551,246.238,84.492,246.238,84.406z
	 M245.43,84.352c0,0.43,0.32,0.633,0.867,0.633h2.359v-2.133c0-0.43-0.316-0.633-0.863-0.633h-2.133v0.434h1.988
	c0.145,0,0.203,0.055,0.203,0.141v0.461h-1.555c-0.547,0-0.867,0.203-0.867,0.637V84.352z M241.516,84.984h0.805v-2.332h1.41
	c0.145,0,0.203,0.055,0.203,0.141v2.191h0.805v-2.133c0-0.43-0.316-0.633-0.863-0.633h-1.555v-1.035h-0.805V84.984z M237.887,84.352
	c0,0.43,0.316,0.633,0.863,0.633h2.133v-0.434h-1.988c-0.145,0-0.203-0.059-0.203-0.145v-1.613c0-0.086,0.059-0.141,0.203-0.141
	h1.988v-0.434h-2.133c-0.547,0-0.863,0.203-0.863,0.633V84.352z M235.41,84.984h0.805v-2.191c0-0.086,0.059-0.141,0.203-0.141h0.891
	v-0.434h-1.035c-0.547,0-0.863,0.203-0.863,0.633V84.984z M232.242,84.406v-0.574c0-0.086,0.055-0.145,0.199-0.145h1.414v0.863
	h-1.414C232.297,84.551,232.242,84.492,232.242,84.406z M231.434,84.352c0,0.43,0.316,0.633,0.863,0.633h2.363v-2.133
	c0-0.43-0.316-0.633-0.863-0.633h-2.133v0.434h1.988c0.145,0,0.203,0.055,0.203,0.141v0.461h-1.559
	c-0.547,0-0.863,0.203-0.863,0.637V84.352z M227.52,84.984h0.805v-2.332h1.41c0.145,0,0.204,0.055,0.204,0.141v2.191h0.804v-2.133
	c0-0.43-0.316-0.633-0.863-0.633h-1.555v-1.035h-0.805V84.984z M222.969,84.293c0,0.461,0.343,0.691,0.922,0.691h2.938v-0.492
	h-2.767c-0.144,0-0.229-0.055-0.229-0.172v-2.477c0-0.113,0.086-0.172,0.229-0.172h2.767v-0.488h-2.938
	c-0.579,0-0.922,0.23-0.922,0.691V84.293z"/>
<circle stroke="#000000" stroke-miterlimit="10" cx="187.012" cy="73.441" r="2.16"/>
<path fill="#FFFFFF" d="M188.309,73.441c0,0.715-0.578,1.293-1.297,1.293c-0.715,0-1.293-0.578-1.293-1.293
	c0-0.719,0.578-1.296,1.293-1.296C187.73,72.146,188.309,72.723,188.309,73.441z"/>
<circle stroke="#000000" stroke-miterlimit="10" cx="162.922" cy="49.723" r="2.16"/>
<circle fill="#FFFFFF" cx="162.922" cy="49.723" r="1.297"/>
<circle cx="238.652" cy="68.457" r="2.664"/>
<circle fill="#FFFFFF" cx="238.65" cy="68.457" r="1.275"/>
<circle cx="223.371" cy="53.187" r="2.664"/>
<circle fill="#FFFFFF" cx="223.373" cy="53.187" r="1.275"/>
<polyline fill="none" stroke="#000000" stroke-width="0.72" stroke-linecap="round" stroke-linejoin="round" points="16.609,7.188 
	360,7.188 360,124.633 7.199,124.633 7.199,7.188 16.609,7.188 "/>
</svg>
