;PTH Drill file created by EasyEDA 
M48
;Holesize 1 = 0.040 INCH
T01C0.040
;Holesize 2 = 0.035 INCH
T02C0.035
;Holesize 3 = 0.038 INCH
T03C0.038
;Holesize 4 = 0.032 INCH
T04C0.032
;Holesize 5 = 0.028 INCH
T05C0.028
;Holesize 6 = 0.036 INCH
T06C0.036
INCH,00.0000
%
G05
G90
T01
X018751Y005365
X017751Y005365
T02
X021822Y008934
X023632Y007123
X010123Y007932
X012244Y005811
X031546Y007101
X029423Y009223
T03
X008209Y008226
X007501Y007519
T04
X027864Y008605
X026450Y007190
X026365Y008690
T05
X013027Y005015
X013735Y004309
X013017Y007892
X012306Y008600
X014793Y008384
X015500Y007673
X016207Y006965
X016915Y006259
X019036Y008380
X018328Y009088
X017622Y009794
X016915Y010501
T06
X024373Y006409
X021027Y009703
M30
