G04 ---------------------------- Layer name :KeepOutLayer *
G04 easyEDA 0.1*
G04 Scale: 100 percent, Rotated: No, Reflected: No *
G04 Dimensions in inches *
G04 leading zeros omitted , absolute positions ,2 integer and 4 * 
%FSLAX24Y24*%
%MOIN*%
G90*
G70D02*

%ADD10C,0.010000*%
G54D10*
G01X500Y8000D02*
G01X100Y8500D01*
G01X0Y8700D01*
G01X1100Y9300D01*
G01X4300Y10100D01*
G01X10900Y11100D01*
G01X15600Y11500D01*
G01X17200Y12700D01*
G01X18800Y13900D01*
G01X20000Y14600D01*
G01X20600Y14900D01*
G01X21100Y15000D01*
G01X21600Y15100D01*
G01X22100Y14900D01*
G01X22400Y14600D01*
G01X22500Y14200D01*
G01X22400Y13500D01*
G01X22300Y12200D01*
G01X22400Y11700D01*
G01X22600Y11400D01*
G01X22900Y11300D01*
G01X30900Y10400D01*
G01X32500Y11200D01*
G01X33200Y11500D01*
G01X33500Y11500D01*
G01X33800Y11400D01*
G01X34300Y11000D01*
G01X35300Y10000D01*
G01X35700Y9800D01*
G01X36500Y9800D01*
G01X37400Y10000D01*
G01X37800Y10300D01*
G01X43400Y11500D01*
G01X44200Y11300D01*
G01X47600Y11500D01*
G01X47700Y11300D01*
G01X47400Y10400D01*
G01X46100Y9100D01*
G01X45600Y9000D01*
G01X45200Y9000D01*
G01X41700Y6900D01*
G01X41700Y6500D01*
G01X42400Y5200D01*
G01X42600Y4600D01*
G01X42500Y4100D01*
G01X42300Y4000D01*
G01X41600Y3900D01*
G01X40100Y4500D01*
G01X36900Y4400D01*
G01X36700Y3900D01*
G01X36500Y3700D01*
G01X36300Y3700D01*
G01X36200Y3100D01*
G01X35900Y2900D01*
G01X28800Y2900D01*
G01X28800Y2500D01*
G01X28700Y2000D01*
G01X28400Y1500D01*
G01X27800Y1200D01*
G01X17300Y1200D01*
G01X17100Y500D01*
G01X16800Y200D01*
G01X16300Y0D01*
G01X15800Y0D01*
G01X14000Y700D01*
G01X12200Y2300D01*
G01X11100Y3900D01*
G01X10900Y4400D01*
G01X10500Y4600D01*
G01X7300Y5000D01*
G01X5300Y5400D01*
G01X4200Y6000D01*
G01X3300Y6400D01*
G01X3100Y6400D01*
G01X500Y8000D01*
G01X400Y8100D01*

%LPD*%

M00*
M02*