G04 ---------------------------- Layer name :TOP SILK LAYER*
G04 easyEDA 0.1*
G04 Scale: 100 percent, Rotated: No, Reflected: No *
G04 Dimensions in inches *
G04 leading zeros omitted , absolute positions ,2 integer and 4 * 
%FSLAX24Y24*%
%MOIN*%
G90*
G70D02*

%ADD10C,0.010000*%
%ADD11C,0.007900*%
%ADD12C,0.009000*%

%LPD*%
G54D10*
G01X30988Y7249D02*
G01X29573Y8663D01*
G01X29573Y8663D02*
G01X29786Y8876D01*
G01X29786Y8876D02*
G01X29998Y9088D01*
G01X29998Y9088D02*
G01X31412Y7673D01*
G01X31412Y7673D02*
G01X31200Y7461D01*
G01X31200Y7461D02*
G01X30988Y7249D01*
G01X29786Y8876D02*
G01X29715Y8946D01*
G01X31200Y7461D02*
G01X31271Y7391D01*
G01X18990Y4877D02*
G01X18490Y4877D01*
G01X18490Y4877D02*
G01X18240Y5127D01*
G01X18240Y5627D02*
G01X18490Y5877D01*
G01X18240Y5127D02*
G01X17990Y4877D01*
G01X17990Y4877D02*
G01X17490Y4877D01*
G01X17490Y4877D02*
G01X17240Y5127D01*
G01X17240Y5627D02*
G01X17490Y5877D01*
G01X17490Y5877D02*
G01X17990Y5877D01*
G01X17990Y5877D02*
G01X18240Y5627D01*
G01X19240Y5127D02*
G01X19240Y5627D01*
G01X18990Y4877D02*
G01X19240Y5127D01*
G01X19240Y5627D02*
G01X18990Y5877D01*
G01X18490Y5877D02*
G01X18990Y5877D01*
G01X17240Y5127D02*
G01X17240Y5627D01*
G01X6972Y7700D02*
G01X7680Y6989D01*
G01X10689Y7794D02*
G01X12103Y6380D01*
G01X12103Y6380D02*
G01X11891Y6168D01*
G01X11891Y6168D02*
G01X11679Y5956D01*
G01X11679Y5956D02*
G01X10265Y7370D01*
G01X10265Y7370D02*
G01X10477Y7582D01*
G01X10477Y7582D02*
G01X10689Y7794D01*
G01X11891Y6168D02*
G01X11962Y6097D01*
G01X10477Y7582D02*
G01X10406Y7653D01*
G01X25257Y7945D02*
G01X27095Y9783D01*
G01X27095Y9783D02*
G01X29040Y7839D01*
G01X29040Y7839D02*
G01X27201Y6000D01*
G01X27201Y6000D02*
G01X25257Y7945D01*
G01X27053Y8171D02*
G01X27194Y8312D01*
G01X27194Y8312D02*
G01X27336Y8454D01*
G01X27237Y7987D02*
G01X27378Y8129D01*
G01X27378Y8129D02*
G01X27519Y8270D01*
G01X27053Y7803D02*
G01X27194Y7662D01*
G01X27194Y7662D02*
G01X27336Y7521D01*
G01X27053Y7803D02*
G01X26911Y7662D01*
G01X26911Y7662D02*
G01X26770Y7521D01*
G01X26869Y7987D02*
G01X26727Y7846D01*
G01X26727Y7846D02*
G01X26586Y7704D01*
G01X26869Y7987D02*
G01X26727Y8129D01*
G01X26727Y8129D02*
G01X26586Y8270D01*
G01X27053Y8171D02*
G01X26911Y8312D01*
G01X26911Y8312D02*
G01X26770Y8454D01*
G01X27237Y7987D02*
G01X27378Y7846D01*
G01X27378Y7846D02*
G01X27519Y7704D01*
G01X27194Y8312D02*
G01X27378Y8129D01*
G01X26727Y7846D02*
G01X26911Y7662D01*
G01X26727Y8129D02*
G01X26911Y8312D01*
G01X27194Y7662D02*
G01X27378Y7846D01*
G01X27689Y7874D02*
G01X28142Y7832D01*
G01X27696Y7994D02*
G01X28149Y7952D01*
G01X27166Y7351D02*
G01X27208Y6898D01*
G01X27046Y7344D02*
G01X27095Y6884D01*
G01X27661Y8185D02*
G01X27880Y8277D01*
G01X26855Y7379D02*
G01X26763Y7160D01*
G01X27406Y8525D02*
G01X27555Y8701D01*
G01X27555Y8701D02*
G01X27555Y8701D01*
G01X26515Y7634D02*
G01X26339Y7485D01*
G01X26339Y7485D02*
G01X26339Y7485D01*
G01X27230Y8602D02*
G01X27279Y8836D01*
G01X26438Y7810D02*
G01X26204Y7761D01*
G01X27116Y8631D02*
G01X27159Y8857D01*
G01X26409Y7923D02*
G01X26183Y7881D01*
G01X26918Y8617D02*
G01X26855Y8836D01*
G01X26423Y8121D02*
G01X26204Y8185D01*
G01X26812Y8581D02*
G01X26742Y8807D01*
G01X26459Y8228D02*
G01X26232Y8298D01*
G01X28326Y7987D02*
G01X28396Y7987D01*
G01X28396Y7987D02*
G01X28467Y7916D01*
G01X28467Y7916D02*
G01X28467Y7846D01*
G01X28396Y7775D02*
G01X28467Y7846D01*
G01X28467Y7846D02*
G01X28538Y7846D01*
G01X28538Y7846D02*
G01X28608Y7775D01*
G01X28326Y7987D02*
G01X28219Y7881D01*
G01X28219Y7881D02*
G01X28219Y7810D01*
G01X28608Y7775D02*
G01X28608Y7704D01*
G01X28608Y7704D02*
G01X28502Y7598D01*
G01X28502Y7598D02*
G01X28432Y7598D01*
G01X27159Y6820D02*
G01X27442Y6538D01*
G01X27442Y6538D02*
G01X27512Y6608D01*
G01X27442Y6538D02*
G01X27371Y6467D01*
G01X27159Y6820D02*
G01X27159Y6679D01*
G54D11*
G01X14439Y4312D02*
G01X13025Y5726D01*
G01X12318Y5019D01*
G01X13732Y3605D01*
G01X14439Y4312D01*
G01X11575Y8587D02*
G01X12990Y7173D01*
G01X13697Y7880D01*
G01X12282Y9294D01*
G01X11575Y8587D01*
G54D12*
G01X14794Y9092D02*
G01X17622Y6263D01*
G01X19036Y7677D01*
G01X16208Y10506D01*
G01X14794Y9092D01*
G54D10*
G01X21518Y11736D02*
G01X21560Y11694D01*
G01X21560Y11694D02*
G01X21645Y11609D01*
G01X21645Y11609D02*
G01X21292Y11255D01*
G01X20797Y10760D02*
G01X20627Y10591D01*
G01X19807Y10661D02*
G01X19693Y10775D01*
G01X18718Y11750D02*
G01X18605Y11863D01*
G01X18534Y12684D02*
G01X18704Y12853D01*
G01X19198Y13348D02*
G01X19552Y13702D01*
G01X19552Y13702D02*
G01X19637Y13617D01*
G01X19637Y13617D02*
G01X19679Y13575D01*
G01X21525Y11941D02*
G01X19884Y13582D01*
G01X21581Y11998D02*
G01X19941Y13638D01*
G01X21518Y11849D02*
G01X21525Y11857D01*
G01X21525Y11857D02*
G01X21581Y11913D01*
G01X19793Y13575D02*
G01X19800Y13582D01*
G01X19800Y13582D02*
G01X19856Y13638D01*
G01X21645Y11609D02*
G01X21836Y11659D01*
G01X21836Y11659D02*
G01X21808Y11772D01*
G01X21808Y11772D02*
G01X21603Y11722D01*
G01X19552Y13702D02*
G01X19602Y13893D01*
G01X19602Y13893D02*
G01X19715Y13865D01*
G01X19715Y13865D02*
G01X19672Y13667D01*

%LPD*%
G36*
G01X31330Y8387D02*
G01X31120Y8177D01*
G01X31167Y8130D01*
G01X31259Y8221D01*
G01X31327Y8154D01*
G01X31303Y7994D01*
G01X31355Y7941D01*
G01X31379Y8102D01*
G01X31387Y8094D01*
G01X31387Y8094D01*
G01X31410Y8075D01*
G01X31434Y8066D01*
G01X31456Y8068D01*
G01X31476Y8081D01*
G01X31517Y8123D01*
G01X31517Y8123D01*
G01X31530Y8143D01*
G01X31532Y8165D01*
G01X31524Y8188D01*
G01X31505Y8212D01*
G01X31330Y8387D01*
G37*
G36*
G01X31637Y8080D02*
G01X31610Y8053D01*
G01X31674Y7990D01*
G01X31491Y7806D01*
G01X31538Y7759D01*
G01X31748Y7969D01*
G01X31637Y8080D01*
G37*

%LPC*%
G36*
G01X31405Y8131D02*
G01X31287Y8249D01*
G01X31351Y8313D01*
G01X31469Y8195D01*
G01X31469Y8195D01*
G01X31473Y8189D01*
G01X31475Y8183D01*
G01X31475Y8177D01*
G01X31471Y8172D01*
G01X31427Y8127D01*
G01X31427Y8127D01*
G01X31422Y8124D01*
G01X31417Y8124D01*
G01X31411Y8126D01*
G01X31405Y8131D01*
G37*

%LPD*%

%LPD*%
G36*
G01X16964Y5071D02*
G01X16915Y5119D01*
G01X16809Y4805D01*
G01X16864Y4750D01*
G01X17179Y4856D01*
G01X17129Y4905D01*
G01X16881Y4822D01*
G01X16964Y5071D01*
G37*
G36*
G01X17242Y4792D02*
G01X17215Y4765D01*
G01X17279Y4701D01*
G01X17096Y4518D01*
G01X17144Y4470D01*
G01X17354Y4680D01*
G01X17242Y4792D01*
G37*

%LPD*%

%LPD*%
G36*
G01X21975Y9673D02*
G01X21948Y9646D01*
G01X22123Y9471D01*
G01X22123Y9471D01*
G01X22147Y9452D01*
G01X22171Y9443D01*
G01X22193Y9445D01*
G01X22213Y9458D01*
G01X22266Y9512D01*
G01X22266Y9512D01*
G01X22280Y9532D01*
G01X22282Y9553D01*
G01X22273Y9577D01*
G01X22254Y9601D01*
G01X22139Y9716D01*
G01X22139Y9716D01*
G01X22135Y9722D01*
G01X22133Y9727D01*
G01X22133Y9733D01*
G01X22136Y9738D01*
G01X22169Y9771D01*
G01X22169Y9771D01*
G01X22175Y9774D01*
G01X22180Y9775D01*
G01X22186Y9773D01*
G01X22192Y9769D01*
G01X22341Y9619D01*
G01X22368Y9646D01*
G01X22209Y9805D01*
G01X22209Y9805D01*
G01X22185Y9824D01*
G01X22162Y9833D01*
G01X22140Y9831D01*
G01X22120Y9818D01*
G01X22090Y9788D01*
G01X22090Y9788D01*
G01X22077Y9767D01*
G01X22075Y9745D01*
G01X22083Y9722D01*
G01X22102Y9699D01*
G01X22217Y9584D01*
G01X22217Y9584D01*
G01X22222Y9578D01*
G01X22224Y9572D01*
G01X22224Y9567D01*
G01X22220Y9562D01*
G01X22163Y9505D01*
G01X22163Y9505D01*
G01X22158Y9501D01*
G01X22153Y9501D01*
G01X22146Y9503D01*
G01X22140Y9508D01*
G01X21975Y9673D01*
G37*
G36*
G01X22391Y9547D02*
G01X22257Y9414D01*
G01X22257Y9414D01*
G01X22244Y9393D01*
G01X22242Y9371D01*
G01X22251Y9348D01*
G01X22270Y9325D01*
G01X22445Y9150D01*
G01X22575Y9280D01*
G01X22466Y9388D01*
G01X22440Y9361D01*
G01X22500Y9301D01*
G01X22424Y9224D01*
G01X22306Y9342D01*
G01X22306Y9342D01*
G01X22302Y9348D01*
G01X22300Y9354D01*
G01X22300Y9360D01*
G01X22303Y9365D01*
G01X22440Y9501D01*
G01X22440Y9501D01*
G01X22445Y9504D01*
G01X22451Y9505D01*
G01X22456Y9503D01*
G01X22462Y9499D01*
G01X22615Y9346D01*
G01X22642Y9373D01*
G01X22480Y9535D01*
G01X22480Y9535D01*
G01X22456Y9553D01*
G01X22433Y9562D01*
G01X22411Y9560D01*
G01X22391Y9547D01*
G37*
G36*
G01X22739Y9276D02*
G01X22712Y9249D01*
G01X22775Y9185D01*
G01X22592Y9002D01*
G01X22640Y8954D01*
G01X22850Y9164D01*
G01X22739Y9276D01*
G37*

%LPD*%

%LPD*%
G36*
G01X10601Y6742D02*
G01X10391Y6532D01*
G01X10438Y6485D01*
G01X10530Y6577D01*
G01X10597Y6510D01*
G01X10574Y6349D01*
G01X10626Y6297D01*
G01X10649Y6457D01*
G01X10657Y6450D01*
G01X10657Y6450D01*
G01X10681Y6431D01*
G01X10704Y6422D01*
G01X10726Y6423D01*
G01X10746Y6437D01*
G01X10788Y6479D01*
G01X10788Y6479D01*
G01X10802Y6499D01*
G01X10804Y6521D01*
G01X10794Y6544D01*
G01X10775Y6568D01*
G01X10601Y6742D01*
G37*
G36*
G01X10689Y6288D02*
G01X10662Y6261D01*
G01X10825Y6098D01*
G01X10825Y6098D01*
G01X10849Y6079D01*
G01X10872Y6070D01*
G01X10894Y6072D01*
G01X10914Y6085D01*
G01X10960Y6131D01*
G01X10960Y6131D01*
G01X10971Y6146D01*
G01X10975Y6161D01*
G01X10974Y6175D01*
G01X10969Y6189D01*
G01X10969Y6189D01*
G01X10983Y6184D01*
G01X10998Y6184D01*
G01X11013Y6188D01*
G01X11027Y6199D01*
G01X11048Y6219D01*
G01X11048Y6219D01*
G01X11061Y6239D01*
G01X11063Y6261D01*
G01X11054Y6284D01*
G01X11035Y6308D01*
G01X10872Y6471D01*
G01X10845Y6444D01*
G01X10999Y6291D01*
G01X10999Y6291D01*
G01X11004Y6285D01*
G01X11006Y6279D01*
G01X11005Y6273D01*
G01X11002Y6268D01*
G01X10968Y6235D01*
G01X10968Y6235D01*
G01X10963Y6231D01*
G01X10958Y6231D01*
G01X10952Y6233D01*
G01X10946Y6238D01*
G01X10821Y6362D01*
G01X10794Y6335D01*
G01X10919Y6211D01*
G01X10919Y6211D01*
G01X10924Y6205D01*
G01X10926Y6199D01*
G01X10926Y6194D01*
G01X10922Y6189D01*
G01X10865Y6131D01*
G01X10865Y6131D01*
G01X10860Y6128D01*
G01X10855Y6127D01*
G01X10849Y6129D01*
G01X10843Y6134D01*
G01X10689Y6288D01*
G37*

%LPC*%
G36*
G01X10676Y6486D02*
G01X10558Y6604D01*
G01X10621Y6668D01*
G01X10739Y6550D01*
G01X10739Y6550D01*
G01X10744Y6544D01*
G01X10746Y6538D01*
G01X10746Y6532D01*
G01X10742Y6527D01*
G01X10698Y6483D01*
G01X10698Y6483D01*
G01X10693Y6479D01*
G01X10687Y6479D01*
G01X10682Y6481D01*
G01X10676Y6486D01*
G37*

%LPD*%

%LPD*%
G36*
G01X28042Y9509D02*
G01X27832Y9299D01*
G01X27880Y9251D01*
G01X27972Y9343D01*
G01X28039Y9276D01*
G01X28015Y9116D01*
G01X28068Y9063D01*
G01X28091Y9224D01*
G01X28099Y9216D01*
G01X28099Y9216D01*
G01X28123Y9197D01*
G01X28147Y9188D01*
G01X28169Y9190D01*
G01X28188Y9203D01*
G01X28230Y9245D01*
G01X28230Y9245D01*
G01X28244Y9265D01*
G01X28245Y9287D01*
G01X28237Y9310D01*
G01X28217Y9334D01*
G01X28042Y9509D01*
G37*
G36*
G01X28189Y9125D02*
G01X28097Y9033D01*
G01X28317Y8814D01*
G01X28344Y8840D01*
G01X28172Y9012D01*
G01X28240Y9079D01*
G01X28240Y9079D01*
G01X28245Y9083D01*
G01X28251Y9083D01*
G01X28257Y9081D01*
G01X28262Y9076D01*
G01X28370Y8968D01*
G01X28370Y8968D01*
G01X28394Y8949D01*
G01X28417Y8940D01*
G01X28439Y8942D01*
G01X28459Y8955D01*
G01X28489Y8985D01*
G01X28489Y8985D01*
G01X28503Y9006D01*
G01X28505Y9028D01*
G01X28496Y9051D01*
G01X28476Y9074D01*
G01X28324Y9227D01*
G01X28297Y9200D01*
G01X28440Y9057D01*
G01X28440Y9057D01*
G01X28445Y9051D01*
G01X28447Y9045D01*
G01X28447Y9040D01*
G01X28443Y9035D01*
G01X28409Y9002D01*
G01X28409Y9002D01*
G01X28405Y8998D01*
G01X28399Y8997D01*
G01X28393Y8999D01*
G01X28387Y9004D01*
G01X28278Y9113D01*
G01X28278Y9113D01*
G01X28255Y9132D01*
G01X28232Y9141D01*
G01X28210Y9139D01*
G01X28189Y9125D01*
G37*

%LPC*%
G36*
G01X28117Y9253D02*
G01X27999Y9371D01*
G01X28063Y9434D01*
G01X28181Y9316D01*
G01X28181Y9316D01*
G01X28186Y9310D01*
G01X28188Y9305D01*
G01X28188Y9299D01*
G01X28184Y9294D01*
G01X28139Y9249D01*
G01X28139Y9249D01*
G01X28135Y9246D01*
G01X28129Y9246D01*
G01X28123Y9248D01*
G01X28117Y9253D01*
G37*

%LPD*%

%LPD*%
G36*
G01X13788Y5517D02*
G01X13655Y5383D01*
G01X13655Y5383D01*
G01X13642Y5363D01*
G01X13640Y5341D01*
G01X13649Y5318D01*
G01X13668Y5294D01*
G01X13830Y5131D01*
G01X13857Y5158D01*
G01X13704Y5312D01*
G01X13704Y5312D01*
G01X13700Y5318D01*
G01X13698Y5323D01*
G01X13698Y5328D01*
G01X13701Y5333D01*
G01X13839Y5471D01*
G01X13839Y5471D01*
G01X13843Y5474D01*
G01X13849Y5475D01*
G01X13855Y5473D01*
G01X13860Y5468D01*
G01X14013Y5314D01*
G01X14040Y5341D01*
G01X13878Y5504D01*
G01X13878Y5504D01*
G01X13854Y5523D01*
G01X13831Y5532D01*
G01X13809Y5530D01*
G01X13788Y5517D01*
G37*
G36*
G01X14118Y5263D02*
G01X14091Y5237D01*
G01X14155Y5173D01*
G01X13972Y4990D01*
G01X14019Y4942D01*
G01X14229Y5152D01*
G01X14118Y5263D01*
G37*

%LPD*%

%LPD*%
G36*
G01X11821Y8017D02*
G01X11686Y7884D01*
G01X11686Y7884D01*
G01X11673Y7864D01*
G01X11672Y7842D01*
G01X11681Y7819D01*
G01X11700Y7795D01*
G01X11861Y7633D01*
G01X11888Y7660D01*
G01X11735Y7814D01*
G01X11735Y7814D01*
G01X11730Y7819D01*
G01X11729Y7825D01*
G01X11729Y7830D01*
G01X11733Y7834D01*
G01X11869Y7971D01*
G01X11869Y7971D01*
G01X11874Y7975D01*
G01X11880Y7975D01*
G01X11886Y7973D01*
G01X11892Y7969D01*
G01X12044Y7816D01*
G01X12071Y7843D01*
G01X11909Y8005D01*
G01X11909Y8005D01*
G01X11886Y8023D01*
G01X11863Y8032D01*
G01X11841Y8030D01*
G01X11821Y8017D01*
G37*
G36*
G01X11992Y7689D02*
G01X11898Y7596D01*
G01X12119Y7376D01*
G01X12144Y7402D01*
G01X11973Y7575D01*
G01X12040Y7643D01*
G01X12040Y7643D01*
G01X12045Y7645D01*
G01X12050Y7645D01*
G01X12056Y7643D01*
G01X12063Y7638D01*
G01X12169Y7530D01*
G01X12169Y7530D01*
G01X12193Y7511D01*
G01X12217Y7502D01*
G01X12239Y7504D01*
G01X12259Y7517D01*
G01X12290Y7547D01*
G01X12290Y7547D01*
G01X12303Y7568D01*
G01X12304Y7590D01*
G01X12295Y7614D01*
G01X12277Y7638D01*
G01X12125Y7790D01*
G01X12098Y7763D01*
G01X12240Y7620D01*
G01X12240Y7620D01*
G01X12245Y7615D01*
G01X12247Y7609D01*
G01X12247Y7603D01*
G01X12244Y7597D01*
G01X12210Y7565D01*
G01X12210Y7565D01*
G01X12205Y7561D01*
G01X12199Y7560D01*
G01X12193Y7562D01*
G01X12187Y7567D01*
G01X12079Y7675D01*
G01X12079Y7675D01*
G01X12056Y7694D01*
G01X12033Y7703D01*
G01X12012Y7702D01*
G01X11992Y7689D01*
G37*

%LPD*%

%LPD*%
G36*
G01X17881Y8225D02*
G01X17854Y8198D01*
G01X18023Y8029D01*
G01X18023Y8029D01*
G01X18047Y8010D01*
G01X18070Y8002D01*
G01X18091Y8004D01*
G01X18112Y8017D01*
G01X18166Y8071D01*
G01X18166Y8071D01*
G01X18179Y8091D01*
G01X18181Y8113D01*
G01X18172Y8136D01*
G01X18153Y8160D01*
G01X18032Y8281D01*
G01X18085Y8333D01*
G01X18244Y8174D01*
G01X18271Y8201D01*
G01X18064Y8408D01*
G01X17958Y8301D01*
G01X18117Y8142D01*
G01X18117Y8142D01*
G01X18121Y8136D01*
G01X18124Y8131D01*
G01X18123Y8125D01*
G01X18120Y8120D01*
G01X18063Y8063D01*
G01X18063Y8063D01*
G01X18057Y8060D01*
G01X18052Y8059D01*
G01X18046Y8061D01*
G01X18040Y8066D01*
G01X17881Y8225D01*
G37*
G36*
G01X18139Y7967D02*
G01X18112Y7940D01*
G01X18280Y7772D01*
G01X18280Y7772D01*
G01X18304Y7753D01*
G01X18327Y7744D01*
G01X18349Y7746D01*
G01X18370Y7759D01*
G01X18424Y7813D01*
G01X18424Y7813D01*
G01X18437Y7833D01*
G01X18439Y7855D01*
G01X18430Y7878D01*
G01X18411Y7902D01*
G01X18290Y8023D01*
G01X18343Y8075D01*
G01X18502Y7916D01*
G01X18529Y7943D01*
G01X18322Y8150D01*
G01X18215Y8044D01*
G01X18374Y7884D01*
G01X18374Y7884D01*
G01X18379Y7879D01*
G01X18381Y7873D01*
G01X18381Y7868D01*
G01X18378Y7862D01*
G01X18320Y7805D01*
G01X18320Y7805D01*
G01X18315Y7802D01*
G01X18310Y7802D01*
G01X18304Y7804D01*
G01X18298Y7808D01*
G01X18139Y7967D01*
G37*
G36*
G01X18397Y7709D02*
G01X18370Y7682D01*
G01X18538Y7514D01*
G01X18538Y7514D01*
G01X18562Y7495D01*
G01X18585Y7486D01*
G01X18607Y7488D01*
G01X18627Y7501D01*
G01X18681Y7555D01*
G01X18681Y7555D01*
G01X18694Y7576D01*
G01X18696Y7598D01*
G01X18687Y7621D01*
G01X18669Y7644D01*
G01X18548Y7765D01*
G01X18600Y7818D01*
G01X18759Y7659D01*
G01X18786Y7686D01*
G01X18580Y7892D01*
G01X18473Y7786D01*
G01X18632Y7627D01*
G01X18632Y7627D01*
G01X18637Y7621D01*
G01X18639Y7615D01*
G01X18638Y7610D01*
G01X18635Y7604D01*
G01X18578Y7547D01*
G01X18578Y7547D01*
G01X18573Y7544D01*
G01X18568Y7544D01*
G01X18562Y7546D01*
G01X18556Y7550D01*
G01X18397Y7709D01*
G37*

%LPD*%

%LPD*%
G36*
G01X20112Y13070D02*
G01X19940Y12898D01*
G01X19940Y12898D01*
G01X19927Y12878D01*
G01X19925Y12856D01*
G01X19934Y12833D01*
G01X19953Y12809D01*
G01X20077Y12685D01*
G01X20077Y12685D01*
G01X20101Y12666D01*
G01X20124Y12657D01*
G01X20146Y12659D01*
G01X20166Y12673D01*
G01X20338Y12844D01*
G01X20290Y12892D01*
G01X20117Y12719D01*
G01X20117Y12719D01*
G01X20112Y12715D01*
G01X20106Y12714D01*
G01X20100Y12716D01*
G01X20094Y12721D01*
G01X19989Y12827D01*
G01X19989Y12827D01*
G01X19985Y12832D01*
G01X19982Y12838D01*
G01X19983Y12844D01*
G01X19986Y12849D01*
G01X20159Y13023D01*
G01X20112Y13070D01*
G37*
G36*
G01X20199Y12617D02*
G01X20172Y12590D01*
G01X20347Y12414D01*
G01X20347Y12414D01*
G01X20371Y12395D01*
G01X20394Y12386D01*
G01X20417Y12388D01*
G01X20437Y12402D01*
G01X20490Y12455D01*
G01X20490Y12455D01*
G01X20504Y12476D01*
G01X20506Y12498D01*
G01X20497Y12521D01*
G01X20478Y12545D01*
G01X20364Y12660D01*
G01X20364Y12660D01*
G01X20359Y12666D01*
G01X20357Y12671D01*
G01X20357Y12676D01*
G01X20360Y12682D01*
G01X20393Y12715D01*
G01X20393Y12715D01*
G01X20399Y12718D01*
G01X20404Y12719D01*
G01X20410Y12717D01*
G01X20416Y12712D01*
G01X20565Y12563D01*
G01X20592Y12590D01*
G01X20433Y12749D01*
G01X20433Y12749D01*
G01X20409Y12768D01*
G01X20386Y12777D01*
G01X20364Y12775D01*
G01X20344Y12762D01*
G01X20314Y12731D01*
G01X20314Y12731D01*
G01X20301Y12711D01*
G01X20298Y12689D01*
G01X20307Y12666D01*
G01X20326Y12642D01*
G01X20441Y12528D01*
G01X20441Y12528D01*
G01X20446Y12522D01*
G01X20448Y12516D01*
G01X20448Y12511D01*
G01X20444Y12506D01*
G01X20387Y12448D01*
G01X20387Y12448D01*
G01X20382Y12445D01*
G01X20376Y12444D01*
G01X20370Y12446D01*
G01X20364Y12451D01*
G01X20199Y12617D01*
G37*
G36*
G01X20653Y12529D02*
G01X20443Y12319D01*
G01X20618Y12144D01*
G01X20618Y12144D01*
G01X20642Y12125D01*
G01X20665Y12116D01*
G01X20687Y12118D01*
G01X20707Y12132D01*
G01X20753Y12178D01*
G01X20753Y12178D01*
G01X20764Y12193D01*
G01X20767Y12209D01*
G01X20766Y12224D01*
G01X20760Y12238D01*
G01X20760Y12238D01*
G01X20774Y12233D01*
G01X20788Y12233D01*
G01X20803Y12237D01*
G01X20817Y12248D01*
G01X20837Y12268D01*
G01X20837Y12268D01*
G01X20851Y12288D01*
G01X20853Y12310D01*
G01X20844Y12333D01*
G01X20825Y12357D01*
G01X20653Y12529D01*
G37*
G36*
G01X20960Y12222D02*
G01X20933Y12195D01*
G01X20997Y12132D01*
G01X20814Y11948D01*
G01X20861Y11901D01*
G01X21071Y12111D01*
G01X20960Y12222D01*
G37*

%LPC*%
G36*
G01X20635Y12180D02*
G01X20517Y12299D01*
G01X20594Y12375D01*
G01X20712Y12257D01*
G01X20712Y12257D01*
G01X20717Y12251D01*
G01X20719Y12245D01*
G01X20719Y12240D01*
G01X20715Y12235D01*
G01X20658Y12178D01*
G01X20658Y12178D01*
G01X20653Y12174D01*
G01X20647Y12173D01*
G01X20641Y12175D01*
G01X20635Y12180D01*
G37*
G36*
G01X20736Y12288D02*
G01X20621Y12402D01*
G01X20673Y12455D01*
G01X20788Y12340D01*
G01X20788Y12340D01*
G01X20793Y12334D01*
G01X20795Y12328D01*
G01X20794Y12323D01*
G01X20791Y12318D01*
G01X20758Y12284D01*
G01X20758Y12284D01*
G01X20753Y12281D01*
G01X20747Y12280D01*
G01X20742Y12283D01*
G01X20736Y12288D01*
G37*

%LPD*%
G75*
G01X7677Y6994D02*
G03X6972Y7700I178J882D01*
G01*
G75*
G01X27167Y7355D02*
G03X27685Y7873I-114J632D01*
G01*
G75*
G01X27696Y7990D02*
G03X27666Y8182I-643J-3D01*
G01*
G75*
G01X27050Y7344D02*
G02X26858Y7374I2J643D01*
G01*
G75*
G01X27621Y8293D02*
G03X27503Y8449I-569J-305D01*
G01*
G75*
G01X26747Y7419D02*
G02X26591Y7536I305J568D01*
G01*
G75*
G01X27409Y8521D02*
G03X27231Y8604I-357J-534D01*
G01*
G75*
G01X26518Y7631D02*
G02X26435Y7809I535J357D01*
G01*
G75*
G01X27120Y8627D02*
G03X26922Y8617I-67J-640D01*
G01*
G75*
G01X26413Y7920D02*
G02X26422Y8117I640J67D01*
G01*
G75*
G01X26808Y8583D02*
G03X26641Y8482I246J-595D01*
G01*
G75*
G01X26457Y8232D02*
G02X26557Y8399I596J-245D01*
G01*
G75*
G01X28144Y7832D02*
G03X28155Y7950I-1091J155D01*
G01*
G75*
G01X27207Y6895D02*
G02X27090Y6885I-152J1092D01*
G01*
G75*
G01X27277Y8831D02*
G03X27161Y8853I-220J-844D01*
G01*
G75*
G01X26209Y7763D02*
G02X26187Y7879I844J224D01*
G01*
G75*
G01X26855Y8837D02*
G03X26742Y8803I194J-851D01*
G01*
G75*
G01X26203Y8185D02*
G02X26237Y8298I850J-198D01*
G01*
G75*
G01X21514Y11734D02*
G02X21514Y11846I56J56D01*
G01*
G75*
G01X21526Y11857D02*
G03X21526Y11940I-42J41D01*
G01*
G75*
G01X21584Y11915D02*
G03X21584Y11999I-41J42D01*
G01*
G75*
G01X19942Y13641D02*
G03X19858Y13641I-42J-42D01*
G01*
G75*
G01X19883Y13583D02*
G03X19800Y13583I-41J-42D01*
G01*
G75*
G01X19788Y13572D02*
G02X19677Y13572I-55J56D01*
G01*
G75*
G01X21604Y11722D02*
G03X21556Y11693I30J-104D01*
G01*
G75*
G01X19666Y13666D02*
G02X19635Y13614I-113J32D01*
G01*
G75*
G01X25060Y8046D02*
G03X25060Y8046I-2320J0D01*
G01*
G75*
G01X27603Y7986D02*
G03X27603Y7986I-550J0D01*
G01*
G75*
G01X15531Y9021D02*
G03X15531Y9021I-100J0D01*
G01*

M00*
M02*