G04 ---------------------------- Layer name :TOP PASTER LAYER*
G04 easyEDA 0.1*
G04 Scale: 100 percent, Rotated: No, Reflected: No *
G04 Dimensions in inches *
G04 leading zeros omitted , absolute positions ,2 integer and 4 * 
%FSLAX24Y24*%
%MOIN*%
G90*
G70D02*


%LPD*%
G36*
G01X20238Y10067D02*
G01X19792Y10513D01*
G01X20182Y10902D01*
G01X20627Y10457D01*
G01X20238Y10067D01*
G37*
G36*
G01X18456Y11849D02*
G01X18010Y12294D01*
G01X18400Y12684D01*
G01X18845Y12239D01*
G01X18456Y11849D01*
G37*
G36*
G01X20973Y10717D02*
G01X20569Y11121D01*
G01X20931Y11483D01*
G01X21335Y11079D01*
G01X20973Y10717D01*
G37*
G36*
G01X19064Y12626D02*
G01X18660Y13030D01*
G01X19022Y13392D01*
G01X19426Y12988D01*
G01X19064Y12626D01*
G37*
G36*
G01X20330Y11193D02*
G01X19801Y11722D01*
G01X20330Y12251D01*
G01X20859Y11722D01*
G01X20330Y11193D01*
G37*
G36*
G01X19665Y11858D02*
G01X19136Y12387D01*
G01X19665Y12916D01*
G01X20194Y12387D01*
G01X19665Y11858D01*
G37*
G36*
G01X19484Y10708D02*
G01X19372Y10819D01*
G01X19748Y11195D01*
G01X19859Y11084D01*
G01X19484Y10708D01*
G37*
G36*
G01X18762Y11429D02*
G01X18651Y11540D01*
G01X19027Y11916D01*
G01X19138Y11805D01*
G01X18762Y11429D01*
G37*
G36*
G01X19307Y10885D02*
G01X19196Y10996D01*
G01X19571Y11371D01*
G01X19682Y11260D01*
G01X19307Y10885D01*
G37*
G36*
G01X18939Y11253D02*
G01X18828Y11364D01*
G01X19203Y11739D01*
G01X19314Y11628D01*
G01X18939Y11253D01*
G37*
G36*
G01X19123Y11069D02*
G01X19012Y11180D01*
G01X19387Y11555D01*
G01X19498Y11444D01*
G01X19123Y11069D01*
G37*
G36*
G01X30857Y7269D02*
G01X30411Y7714D01*
G01X30913Y8215D01*
G01X31358Y7770D01*
G01X30857Y7269D01*
G37*
G36*
G01X30079Y8046D02*
G01X29634Y8492D01*
G01X30135Y8993D01*
G01X30580Y8548D01*
G01X30079Y8046D01*
G37*
G36*
G01X11543Y6007D02*
G01X11097Y6452D01*
G01X11599Y6954D01*
G01X12044Y6508D01*
G01X11543Y6007D01*
G37*
G36*
G01X10765Y6785D02*
G01X10319Y7230D01*
G01X10821Y7732D01*
G01X11266Y7286D01*
G01X10765Y6785D01*
G37*

M00*
M02*